<svg width="895" height="554" viewBox="0 0 895 554" fill="none" xmlns="http://www.w3.org/2000/svg">
<mask id="path-1-outside-1_274_21" maskUnits="userSpaceOnUse" x="220" y="63" width="657" height="188" fill="black">
<rect fill="white" x="220" y="63" width="657" height="188"/>
<path d="M337.2 232.6C331.867 233.8 326.4 234.6 320.8 235C315.333 235.533 309.933 235.8 304.6 235.8C299.4 235.8 295.333 235.667 292.4 235.4C289.6 235.133 285.867 234.467 281.2 233.4C276.533 232.333 272.267 230.867 268.4 229C264.533 227.133 260.4 224.4 256 220.8C251.733 217.2 248.133 212.933 245.2 208C238.4 196.533 235 181.733 235 163.6C235 151.467 236.867 140.733 240.6 131.4C244.467 122.067 249.067 114.867 254.4 109.8C259.867 104.733 266.067 100.667 273 97.6C284.2 92.5333 295.467 90 306.8 90C323.067 90 334.733 91.3333 341.8 94C345 95.2 347.867 97.0667 350.4 99.6C352.933 102.133 354.2 105.8 354.2 110.6C354.2 115.4 353 121.467 350.6 128.8C348.333 136.133 345 139.8 340.6 139.8C339.267 139.8 334.333 138.733 325.8 136.6C317.267 134.467 311.467 133.4 308.4 133.4C303.733 133.4 299.733 136 296.4 141.2C293.2 146.4 291.6 153.8 291.6 163.4C291.6 173 293 180.467 295.8 185.8C298.733 191.133 302.533 193.8 307.2 193.8C310.533 193.8 316.533 192.467 325.2 189.8C334 187 339.133 185.6 340.6 185.6C344.733 185.6 347.933 189.4 350.2 197C352.6 204.6 353.8 210.733 353.8 215.4C353.8 220.067 352.333 223.8 349.4 226.6C346.6 229.267 342.533 231.267 337.2 232.6ZM421.25 170.8V229.2C421.25 230.667 417.45 231.867 409.85 232.8C402.383 233.6 394.583 234 386.45 234C378.45 234 373.25 233.667 370.85 233C368.45 232.2 367.25 230.933 367.25 229.2V130.6C367.25 128.067 370.917 125.333 378.25 122.4C385.717 119.467 393.783 118 402.45 118C411.25 118 416.183 120.4 417.25 125.2L419.25 134.4H420.65C422.517 129.333 426.983 125.067 434.05 121.6C441.117 118 448.183 116.2 455.25 116.2C462.317 116.2 467.25 117.333 470.05 119.6C472.983 121.867 474.45 124.8 474.45 128.4C474.45 131.867 474.183 136.333 473.65 141.8C473.117 147.267 471.783 153.2 469.65 159.6C467.65 166 464.983 169.2 461.65 169.2C460.317 169.2 456.117 168.2 449.05 166.2C441.983 164.2 436.117 163.2 431.45 163.2C426.917 163.2 424.05 163.867 422.85 165.2C421.783 166.533 421.25 168.4 421.25 170.8ZM524.638 235.8C509.704 235.8 499.238 231.933 493.238 224.2C487.371 216.467 484.438 203 484.438 183.8V129.4C484.438 126.733 488.371 124.2 496.238 121.8C504.104 119.267 512.371 118 521.038 118C532.638 118 538.438 121 538.438 127V177.8C538.438 187.933 538.838 195.333 539.638 200C540.438 204.533 542.438 206.8 545.638 206.8C549.904 206.8 552.038 205 552.038 201.4V129.4C552.038 126.6 556.171 124 564.438 121.6C572.704 119.2 581.704 118 591.438 118C601.171 118 606.038 120.6 606.038 125.8V228.8C606.038 230.667 601.838 232 593.438 232.8C585.038 233.6 576.771 234 568.638 234C560.504 234 556.371 232.933 556.238 230.8L554.238 217.8H552.638C551.438 222.6 549.038 226.533 545.438 229.6C543.571 231.2 540.771 232.667 537.038 234C533.438 235.2 529.304 235.8 524.638 235.8ZM674.384 235.8C652.251 235.8 636.051 233.667 625.784 229.4C620.584 227.133 617.984 224.933 617.984 222.8C617.984 217.333 619.584 210.933 622.784 203.6C625.984 196.267 628.784 192.6 631.184 192.6C632.518 192.6 636.984 194.067 644.584 197C652.318 199.933 658.784 201.4 663.984 201.4C669.318 201.4 672.784 201.067 674.384 200.4C676.118 199.733 676.984 198.467 676.984 196.6C676.984 194.6 675.651 193.067 672.984 192C670.318 190.8 666.984 190 662.984 189.6C658.984 189.2 654.651 188.4 649.984 187.2C645.451 186 641.184 184.467 637.184 182.6C633.184 180.733 629.851 177.667 627.184 173.4C624.518 169 623.184 164.333 623.184 159.4C623.184 154.333 623.318 150.6 623.584 148.2C623.851 145.667 624.918 142.2 626.784 137.8C628.784 133.267 631.518 129.6 634.984 126.8C638.584 124 644.051 121.467 651.384 119.2C658.851 116.933 667.184 115.8 676.384 115.8C685.584 115.8 693.251 116.133 699.384 116.8C705.651 117.333 710.518 118.067 713.984 119C717.584 119.933 720.518 121 722.784 122.2C726.651 124.2 728.584 126.4 728.584 128.8C728.584 134 726.718 140 722.984 146.8C719.251 153.6 716.251 157 713.984 157C711.851 157 707.118 155.867 699.784 153.6C692.451 151.2 687.051 150 683.584 150C677.984 150 675.184 151.6 675.184 154.8C675.184 156.8 677.051 158.333 680.784 159.4C684.651 160.333 689.251 161.333 694.584 162.4C699.918 163.467 705.251 165 710.584 167C716.051 168.867 720.651 172.333 724.384 177.4C728.251 182.467 730.184 188.867 730.184 196.6C730.184 222.733 711.584 235.8 674.384 235.8ZM807.25 229.2V173.6C807.25 163.6 806.85 156.333 806.05 151.8C805.25 147.267 803.317 145 800.25 145C797.583 145 796.25 146.8 796.25 150.4V229.2C796.25 230.667 792.383 231.867 784.65 232.8C776.917 233.6 768.983 234 760.85 234C752.717 234 747.583 233.667 745.45 233C743.317 232.2 742.25 230.933 742.25 229.2V90.6C742.25 87.8 746.117 85 753.85 82.2C761.583 79.4 769.717 78 778.25 78C787.183 78 792.85 79.6667 795.25 83C796.05 84.0667 796.45 85.2 796.45 86.4V115.8L794.25 129.6H795.65C797.517 126.8 800.45 124.333 804.45 122.2C811.917 118.2 820.05 116.2 828.85 116.2C841.517 116.2 850.05 120.267 854.45 128.4C858.983 136.4 861.25 149.467 861.25 167.6V229.2C861.25 230.667 857.317 231.867 849.45 232.8C841.717 233.6 833.783 234 825.65 234C817.65 234 812.583 233.667 810.45 233C808.317 232.2 807.25 230.933 807.25 229.2Z"/>
</mask>
<path d="M337.2 232.6C331.867 233.8 326.4 234.6 320.8 235C315.333 235.533 309.933 235.8 304.6 235.8C299.4 235.8 295.333 235.667 292.4 235.4C289.6 235.133 285.867 234.467 281.2 233.4C276.533 232.333 272.267 230.867 268.4 229C264.533 227.133 260.4 224.4 256 220.8C251.733 217.2 248.133 212.933 245.2 208C238.4 196.533 235 181.733 235 163.6C235 151.467 236.867 140.733 240.6 131.4C244.467 122.067 249.067 114.867 254.4 109.8C259.867 104.733 266.067 100.667 273 97.6C284.2 92.5333 295.467 90 306.8 90C323.067 90 334.733 91.3333 341.8 94C345 95.2 347.867 97.0667 350.4 99.6C352.933 102.133 354.2 105.8 354.2 110.6C354.2 115.4 353 121.467 350.6 128.8C348.333 136.133 345 139.8 340.6 139.8C339.267 139.8 334.333 138.733 325.8 136.6C317.267 134.467 311.467 133.4 308.4 133.4C303.733 133.4 299.733 136 296.4 141.2C293.2 146.4 291.6 153.8 291.6 163.4C291.6 173 293 180.467 295.8 185.8C298.733 191.133 302.533 193.8 307.2 193.8C310.533 193.8 316.533 192.467 325.2 189.8C334 187 339.133 185.6 340.6 185.6C344.733 185.6 347.933 189.4 350.2 197C352.6 204.6 353.8 210.733 353.8 215.4C353.8 220.067 352.333 223.8 349.4 226.6C346.6 229.267 342.533 231.267 337.2 232.6ZM421.25 170.8V229.2C421.25 230.667 417.45 231.867 409.85 232.8C402.383 233.6 394.583 234 386.45 234C378.45 234 373.25 233.667 370.85 233C368.45 232.2 367.25 230.933 367.25 229.2V130.6C367.25 128.067 370.917 125.333 378.25 122.4C385.717 119.467 393.783 118 402.45 118C411.25 118 416.183 120.4 417.25 125.2L419.25 134.4H420.65C422.517 129.333 426.983 125.067 434.05 121.6C441.117 118 448.183 116.2 455.25 116.2C462.317 116.2 467.25 117.333 470.05 119.6C472.983 121.867 474.45 124.8 474.45 128.4C474.45 131.867 474.183 136.333 473.65 141.8C473.117 147.267 471.783 153.2 469.65 159.6C467.65 166 464.983 169.2 461.65 169.2C460.317 169.2 456.117 168.2 449.05 166.2C441.983 164.2 436.117 163.2 431.45 163.2C426.917 163.2 424.05 163.867 422.85 165.2C421.783 166.533 421.25 168.4 421.25 170.8ZM524.638 235.8C509.704 235.8 499.238 231.933 493.238 224.2C487.371 216.467 484.438 203 484.438 183.8V129.4C484.438 126.733 488.371 124.2 496.238 121.8C504.104 119.267 512.371 118 521.038 118C532.638 118 538.438 121 538.438 127V177.8C538.438 187.933 538.838 195.333 539.638 200C540.438 204.533 542.438 206.8 545.638 206.8C549.904 206.8 552.038 205 552.038 201.4V129.4C552.038 126.6 556.171 124 564.438 121.6C572.704 119.2 581.704 118 591.438 118C601.171 118 606.038 120.6 606.038 125.8V228.8C606.038 230.667 601.838 232 593.438 232.8C585.038 233.6 576.771 234 568.638 234C560.504 234 556.371 232.933 556.238 230.8L554.238 217.8H552.638C551.438 222.6 549.038 226.533 545.438 229.6C543.571 231.2 540.771 232.667 537.038 234C533.438 235.2 529.304 235.8 524.638 235.8ZM674.384 235.8C652.251 235.8 636.051 233.667 625.784 229.4C620.584 227.133 617.984 224.933 617.984 222.8C617.984 217.333 619.584 210.933 622.784 203.6C625.984 196.267 628.784 192.6 631.184 192.6C632.518 192.6 636.984 194.067 644.584 197C652.318 199.933 658.784 201.4 663.984 201.4C669.318 201.4 672.784 201.067 674.384 200.4C676.118 199.733 676.984 198.467 676.984 196.6C676.984 194.6 675.651 193.067 672.984 192C670.318 190.8 666.984 190 662.984 189.6C658.984 189.2 654.651 188.4 649.984 187.2C645.451 186 641.184 184.467 637.184 182.6C633.184 180.733 629.851 177.667 627.184 173.4C624.518 169 623.184 164.333 623.184 159.4C623.184 154.333 623.318 150.6 623.584 148.2C623.851 145.667 624.918 142.2 626.784 137.8C628.784 133.267 631.518 129.6 634.984 126.8C638.584 124 644.051 121.467 651.384 119.2C658.851 116.933 667.184 115.8 676.384 115.8C685.584 115.8 693.251 116.133 699.384 116.8C705.651 117.333 710.518 118.067 713.984 119C717.584 119.933 720.518 121 722.784 122.2C726.651 124.2 728.584 126.4 728.584 128.8C728.584 134 726.718 140 722.984 146.8C719.251 153.6 716.251 157 713.984 157C711.851 157 707.118 155.867 699.784 153.6C692.451 151.2 687.051 150 683.584 150C677.984 150 675.184 151.6 675.184 154.8C675.184 156.8 677.051 158.333 680.784 159.4C684.651 160.333 689.251 161.333 694.584 162.4C699.918 163.467 705.251 165 710.584 167C716.051 168.867 720.651 172.333 724.384 177.4C728.251 182.467 730.184 188.867 730.184 196.6C730.184 222.733 711.584 235.8 674.384 235.8ZM807.25 229.2V173.6C807.25 163.6 806.85 156.333 806.05 151.8C805.25 147.267 803.317 145 800.25 145C797.583 145 796.25 146.8 796.25 150.4V229.2C796.25 230.667 792.383 231.867 784.65 232.8C776.917 233.6 768.983 234 760.85 234C752.717 234 747.583 233.667 745.45 233C743.317 232.2 742.25 230.933 742.25 229.2V90.6C742.25 87.8 746.117 85 753.85 82.2C761.583 79.4 769.717 78 778.25 78C787.183 78 792.85 79.6667 795.25 83C796.05 84.0667 796.45 85.2 796.45 86.4V115.8L794.25 129.6H795.65C797.517 126.8 800.45 124.333 804.45 122.2C811.917 118.2 820.05 116.2 828.85 116.2C841.517 116.2 850.05 120.267 854.45 128.4C858.983 136.4 861.25 149.467 861.25 167.6V229.2C861.25 230.667 857.317 231.867 849.45 232.8C841.717 233.6 833.783 234 825.65 234C817.65 234 812.583 233.667 810.45 233C808.317 232.2 807.25 230.933 807.25 229.2Z" fill="#FFC107"/>
<path d="M337.2 232.6L340.493 247.234L340.666 247.195L340.838 247.152L337.2 232.6ZM320.8 235L319.731 220.038L319.537 220.052L319.344 220.071L320.8 235ZM292.4 235.4L290.978 250.332L291.01 250.335L291.042 250.338L292.4 235.4ZM281.2 233.4L277.858 248.023L281.2 233.4ZM268.4 229L261.879 242.508L261.879 242.508L268.4 229ZM256 220.8L246.327 232.264L246.414 232.338L246.501 232.409L256 220.8ZM245.2 208L232.298 215.651L232.303 215.659L232.307 215.666L245.2 208ZM240.6 131.4L226.742 125.659L226.707 125.744L226.673 125.829L240.6 131.4ZM254.4 109.8L244.204 98.7985L244.136 98.8614L244.069 98.925L254.4 109.8ZM273 97.6L279.068 111.318L279.125 111.293L279.183 111.267L273 97.6ZM341.8 94L336.504 108.034L336.519 108.039L336.533 108.045L341.8 94ZM350.4 99.6L361.007 88.9934L361.007 88.9934L350.4 99.6ZM350.6 128.8L336.344 124.134L336.306 124.252L336.269 124.37L350.6 128.8ZM296.4 141.2L283.772 133.105L283.697 133.221L283.625 133.339L296.4 141.2ZM295.8 185.8L282.519 192.773L282.587 192.901L282.657 193.029L295.8 185.8ZM325.2 189.8L329.611 204.137L329.68 204.116L329.748 204.094L325.2 189.8ZM350.2 197L335.826 201.287L335.86 201.402L335.896 201.517L350.2 197ZM349.4 226.6L359.745 237.462L359.751 237.456L359.757 237.45L349.4 226.6ZM333.907 217.966C329.326 218.997 324.603 219.69 319.731 220.038L321.869 249.962C328.197 249.51 334.408 248.603 340.493 247.234L333.907 217.966ZM319.344 220.071C314.347 220.558 309.433 220.8 304.6 220.8V250.8C310.434 250.8 316.32 250.508 322.257 249.929L319.344 220.071ZM304.6 220.8C299.567 220.8 296.024 220.668 293.758 220.462L291.042 250.338C294.642 250.666 299.233 250.8 304.6 250.8V220.8ZM293.822 220.468C291.961 220.29 288.949 219.784 284.542 218.777L277.858 248.023C282.784 249.149 287.239 249.976 290.978 250.332L293.822 220.468ZM284.542 218.777C280.85 217.933 277.665 216.816 274.921 215.492L261.879 242.508C266.868 244.917 272.217 246.733 277.858 248.023L284.542 218.777ZM274.921 215.492C272.397 214.273 269.26 212.268 265.499 209.191L246.501 232.409C251.54 236.532 256.67 239.993 261.879 242.508L274.921 215.492ZM265.673 209.336C262.72 206.844 260.197 203.872 258.093 200.334L232.307 215.666C236.07 221.995 240.747 227.556 246.327 232.264L265.673 209.336ZM258.102 200.349C253.084 191.887 250 179.974 250 163.6H220C220 183.493 223.716 201.18 232.298 215.651L258.102 200.349ZM250 163.6C250 152.99 251.633 144.207 254.527 136.971L226.673 125.829C222.101 137.26 220 149.943 220 163.6H250ZM254.458 137.141C257.803 129.067 261.375 123.863 264.731 120.675L244.069 98.925C236.758 105.87 231.131 115.066 226.742 125.659L254.458 137.141ZM264.596 120.801C268.826 116.882 273.625 113.725 279.068 111.318L266.932 83.882C258.508 87.6079 250.908 92.5848 244.204 98.7985L264.596 120.801ZM279.183 111.267C288.606 107.003 297.774 105 306.8 105V75C293.159 75 279.794 78.0632 266.817 83.9334L279.183 111.267ZM306.8 105C322.858 105 332.165 106.397 336.504 108.034L347.096 79.966C337.302 76.27 323.275 75 306.8 75V105ZM336.533 108.045C337.632 108.457 338.699 109.113 339.793 110.207L361.007 88.9934C357.034 85.0207 352.368 81.9432 347.067 79.9551L336.533 108.045ZM339.793 110.207C339.581 109.994 339.405 109.766 339.273 109.551C339.144 109.339 339.087 109.191 339.072 109.148C339.05 109.082 339.2 109.487 339.2 110.6H369.2C369.2 103.216 367.205 95.1922 361.007 88.9934L339.793 110.207ZM339.2 110.6C339.2 113.151 338.512 117.509 336.344 124.134L364.856 133.466C367.488 125.424 369.2 117.649 369.2 110.6H339.2ZM336.269 124.37C335.897 125.574 335.564 126.353 335.333 126.807C335.097 127.269 335.047 127.239 335.301 126.96C335.579 126.654 336.215 126.061 337.274 125.559C338.373 125.038 339.542 124.8 340.6 124.8V154.8C355.799 154.8 362.355 141.564 364.931 133.23L336.269 124.37ZM340.6 124.8C341.662 124.8 342.217 124.945 341.442 124.813C340.965 124.732 340.196 124.582 339.07 124.339C336.833 123.855 333.645 123.1 329.438 122.048L322.162 151.152C326.488 152.234 330.033 153.078 332.73 153.661C334.663 154.079 337.982 154.8 340.6 154.8V124.8ZM329.438 122.048C321.155 119.977 313.601 118.4 308.4 118.4V148.4C308.366 148.4 308.665 148.402 309.421 148.493C310.141 148.579 311.102 148.726 312.337 148.953C314.816 149.409 318.069 150.129 322.162 151.152L329.438 122.048ZM308.4 118.4C297.012 118.4 288.864 125.161 283.772 133.105L309.028 149.295C309.87 147.981 310.305 147.777 310.075 147.927C309.944 148.012 309.691 148.148 309.335 148.255C308.977 148.362 308.647 148.4 308.4 148.4V118.4ZM283.625 133.339C278.362 141.892 276.6 152.476 276.6 163.4H306.6C306.6 155.124 308.038 150.908 309.175 149.061L283.625 133.339ZM276.6 163.4C276.6 174.136 278.112 184.378 282.519 192.773L309.081 178.827C307.888 176.555 306.6 171.864 306.6 163.4H276.6ZM282.657 193.029C287.297 201.466 295.373 208.8 307.2 208.8V178.8C307.483 178.8 307.896 178.844 308.369 178.993C308.843 179.142 309.217 179.346 309.466 179.522C309.931 179.847 309.636 179.831 308.943 178.571L282.657 193.029ZM307.2 208.8C313.108 208.8 321.166 206.735 329.611 204.137L320.789 175.463C316.676 176.729 313.421 177.607 310.946 178.157C309.715 178.431 308.772 178.602 308.079 178.701C307.352 178.805 307.1 178.8 307.2 178.8V208.8ZM329.748 204.094C334.07 202.719 337.326 201.741 339.597 201.121C340.742 200.809 341.491 200.628 341.925 200.536C342.14 200.49 342.168 200.49 342.058 200.506C342.029 200.511 341.459 200.6 340.6 200.6V170.6C338.52 170.6 336.576 171.003 335.7 171.189C334.484 171.447 333.125 171.791 331.703 172.179C328.841 172.959 325.13 174.081 320.652 175.506L329.748 204.094ZM340.6 200.6C339.234 200.6 337.842 200.262 336.624 199.631C335.474 199.035 334.844 198.37 334.626 198.112C334.425 197.873 334.523 197.921 334.8 198.498C335.07 199.062 335.43 199.96 335.826 201.287L364.574 192.713C363.163 187.983 361.055 182.922 357.574 178.788C353.757 174.256 347.988 170.6 340.6 170.6V200.6ZM335.896 201.517C338.112 208.534 338.8 212.974 338.8 215.4H368.8C368.8 208.493 367.088 200.666 364.504 192.483L335.896 201.517ZM338.8 215.4C338.8 215.782 338.77 216.023 338.749 216.145C338.728 216.264 338.714 216.277 338.739 216.215C338.764 216.15 338.812 216.052 338.883 215.946C338.955 215.84 339.018 215.774 339.043 215.75L359.757 237.45C366.111 231.385 368.8 223.491 368.8 215.4H338.8ZM339.055 215.738C338.762 216.017 337.38 217.093 333.562 218.048L340.838 247.152C347.687 245.44 354.438 242.516 359.745 237.462L339.055 215.738ZM409.85 232.8L411.448 247.715L411.563 247.702L411.678 247.688L409.85 232.8ZM370.85 233L366.107 247.23L366.468 247.351L366.835 247.453L370.85 233ZM378.25 122.4L372.765 108.439L372.722 108.456L372.679 108.473L378.25 122.4ZM417.25 125.2L431.908 122.014L431.9 121.98L431.893 121.946L417.25 125.2ZM419.25 134.4L404.592 137.586L407.161 149.4H419.25V134.4ZM420.65 134.4V149.4H431.109L434.725 139.586L420.65 134.4ZM434.05 121.6L440.656 135.067L440.758 135.017L440.859 134.966L434.05 121.6ZM470.05 119.6L460.612 131.259L460.744 131.365L460.878 131.469L470.05 119.6ZM469.65 159.6L455.42 154.857L455.375 154.991L455.333 155.126L469.65 159.6ZM449.05 166.2L453.135 151.767L453.135 151.767L449.05 166.2ZM422.85 165.2L411.701 155.166L411.409 155.489L411.137 155.83L422.85 165.2ZM406.25 170.8V229.2H436.25V170.8H406.25ZM406.25 229.2C406.25 222.348 410.786 218.769 411.921 217.972C413.286 217.014 414.259 216.778 413.883 216.896C413.328 217.072 411.58 217.475 408.022 217.912L411.678 247.688C415.72 247.192 419.672 246.528 422.917 245.504C424.441 245.022 426.839 244.153 429.154 242.528C431.239 241.065 436.25 236.786 436.25 229.2H406.25ZM408.252 217.885C401.358 218.624 394.093 219 386.45 219V249C395.074 249 403.409 248.576 411.448 247.715L408.252 217.885ZM386.45 219C382.621 219 379.669 218.919 377.51 218.781C375.078 218.625 374.482 218.441 374.865 218.547L366.835 247.453C369.618 248.226 372.822 248.542 375.59 248.719C378.631 248.914 382.279 249 386.45 249V219ZM375.593 218.77C375.752 218.823 377.352 219.353 379.039 221.134C381.059 223.266 382.25 226.2 382.25 229.2H352.25C352.25 233.933 354.041 238.367 357.261 241.766C360.148 244.814 363.548 246.377 366.107 247.23L375.593 218.77ZM382.25 229.2V130.6H352.25V229.2H382.25ZM382.25 130.6C382.25 133.759 381.073 136.048 380.248 137.233C379.484 138.331 378.839 138.77 378.965 138.676C379.036 138.623 379.428 138.35 380.307 137.897C381.162 137.457 382.315 136.929 383.821 136.327L372.679 108.473C368.543 110.127 364.401 112.115 361.035 114.624C358.327 116.642 352.25 121.862 352.25 130.6H382.25ZM383.735 136.361C389.318 134.168 395.509 133 402.45 133V103C392.058 103 382.115 104.766 372.765 108.439L383.735 136.361ZM402.45 133C403.998 133 405.066 133.108 405.743 133.226C406.433 133.347 406.501 133.441 406.188 133.289C405.834 133.116 405.024 132.64 404.202 131.653C403.345 130.624 402.833 129.47 402.607 128.454L431.893 121.946C430.244 114.524 425.35 109.249 419.312 106.311C413.93 103.693 407.902 103 402.45 103V133ZM402.592 128.386L404.592 137.586L433.908 131.214L431.908 122.014L402.592 128.386ZM419.25 149.4H420.65V119.4H419.25V149.4ZM434.725 139.586C434.757 139.5 435.479 137.607 440.656 135.067L427.444 108.133C418.488 112.527 410.277 119.166 406.575 129.214L434.725 139.586ZM440.859 134.966C446.077 132.307 450.826 131.2 455.25 131.2V101.2C445.54 101.2 436.156 103.693 427.241 108.234L440.859 134.966ZM455.25 131.2C458.061 131.2 459.864 131.433 460.892 131.669C461.977 131.919 461.556 132.023 460.612 131.259L479.488 107.941C472.439 102.235 462.938 101.2 455.25 101.2V131.2ZM460.878 131.469C460.794 131.404 460.333 131.008 459.934 130.208C459.527 129.395 459.45 128.697 459.45 128.4H489.45C489.45 119.995 485.703 112.739 479.222 107.731L460.878 131.469ZM459.45 128.4C459.45 131.185 459.231 135.117 458.721 140.343L488.579 143.256C489.136 137.55 489.45 132.548 489.45 128.4H459.45ZM458.721 140.343C458.318 144.472 457.275 149.291 455.42 154.857L483.88 164.343C486.292 157.109 487.915 150.061 488.579 143.256L458.721 140.343ZM455.333 155.126C455.002 156.184 454.72 156.86 454.534 157.242C454.341 157.64 454.335 157.547 454.627 157.197C454.929 156.835 455.67 156.056 456.966 155.365C458.343 154.63 459.97 154.2 461.65 154.2V184.2C468.851 184.2 474.265 180.493 477.673 176.403C480.799 172.652 482.696 168.143 483.967 164.074L455.333 155.126ZM461.65 154.2C462.738 154.2 463.335 154.352 462.78 154.252C462.461 154.194 461.882 154.074 460.974 153.858C459.171 153.429 456.585 152.743 453.135 151.767L444.965 180.633C448.582 181.657 451.629 182.471 454.026 183.042C455.732 183.448 458.896 184.2 461.65 184.2V154.2ZM453.135 151.767C445.407 149.58 438.053 148.2 431.45 148.2V178.2C434.181 178.2 438.56 178.82 444.965 180.633L453.135 151.767ZM431.45 148.2C428.583 148.2 425.477 148.398 422.502 149.09C419.82 149.714 415.293 151.174 411.701 155.166L433.999 175.234C432.734 176.641 431.455 177.405 430.682 177.785C429.912 178.164 429.384 178.29 429.298 178.31C429.19 178.335 429.784 178.2 431.45 178.2V148.2ZM411.137 155.83C407.227 160.717 406.25 166.351 406.25 170.8H436.25C436.25 170.449 436.34 172.349 434.563 174.57L411.137 155.83ZM493.238 224.2L481.287 233.266L481.336 233.331L481.386 233.395L493.238 224.2ZM496.238 121.8L500.615 136.147L500.725 136.113L500.835 136.078L496.238 121.8ZM539.638 200L524.853 202.534L524.859 202.571L524.866 202.607L539.638 200ZM564.438 121.6L568.62 136.005L568.62 136.005L564.438 121.6ZM593.438 232.8L594.86 247.732L594.86 247.732L593.438 232.8ZM556.238 230.8L571.208 229.864L571.166 229.188L571.063 228.519L556.238 230.8ZM554.238 217.8L569.063 215.519L567.106 202.8H554.238V217.8ZM552.638 217.8V202.8H540.926L538.085 214.162L552.638 217.8ZM545.438 229.6L535.711 218.181L535.693 218.196L535.676 218.211L545.438 229.6ZM537.038 234L541.781 248.23L541.932 248.18L542.083 248.126L537.038 234ZM524.638 220.8C511.846 220.8 507.007 217.477 505.089 215.005L481.386 233.395C491.468 246.39 507.562 250.8 524.638 250.8V220.8ZM505.188 215.134C502.471 211.553 499.438 202.423 499.438 183.8H469.438C469.438 203.577 472.271 221.381 481.287 233.266L505.188 215.134ZM499.438 183.8V129.4H469.438V183.8H499.438ZM499.438 129.4C499.438 132.673 498.168 135.112 497.138 136.474C496.649 137.12 496.207 137.543 495.943 137.773C495.805 137.892 495.696 137.977 495.626 138.029C495.555 138.081 495.514 138.108 495.51 138.111C495.506 138.113 495.607 138.048 495.846 137.927C496.081 137.807 496.414 137.651 496.861 137.464C497.767 137.085 498.998 136.64 500.615 136.147L491.86 107.453C487.443 108.801 482.953 110.514 479.265 112.889C476.227 114.846 469.438 120.06 469.438 129.4H499.438ZM500.835 136.078C507.145 134.046 513.855 133 521.038 133V103C510.886 103 501.063 104.487 491.64 107.522L500.835 136.078ZM521.038 133C523.332 133 524.982 133.151 526.101 133.344C527.258 133.544 527.495 133.728 527.196 133.573C526.828 133.383 525.717 132.701 524.741 131.188C523.721 129.605 523.438 128.023 523.438 127H553.438C553.438 122.977 552.429 118.77 549.959 114.937C547.533 111.174 544.247 108.617 540.979 106.927C534.881 103.773 527.643 103 521.038 103V133ZM523.438 127V177.8H553.438V127H523.438ZM523.438 177.8C523.438 188.05 523.824 196.531 524.853 202.534L554.422 197.466C553.851 194.136 553.438 187.816 553.438 177.8H523.438ZM524.866 202.607C525.513 206.277 526.948 211.01 530.49 215.024C534.521 219.593 540.02 221.8 545.638 221.8V191.8C546.636 191.8 547.987 191.984 549.456 192.625C550.947 193.274 552.132 194.209 552.985 195.176C554.527 196.924 554.562 198.257 554.409 197.393L524.866 202.607ZM545.638 221.8C549.52 221.8 555.227 221.035 560.111 216.914C565.482 212.382 567.038 206.243 567.038 201.4H537.038C537.038 200.157 537.526 196.718 540.764 193.986C543.514 191.665 546.022 191.8 545.638 191.8V221.8ZM567.038 201.4V129.4H537.038V201.4H567.038ZM567.038 129.4C567.038 132.655 565.769 135.089 564.724 136.455C563.794 137.67 562.998 138.126 563.124 138.047C563.185 138.009 563.62 137.753 564.622 137.349C565.595 136.957 566.907 136.502 568.62 136.005L560.255 107.195C555.635 108.536 550.971 110.25 547.151 112.653C543.97 114.654 537.038 119.916 537.038 129.4H567.038ZM568.62 136.005C575.363 134.047 582.938 133 591.438 133V103C580.471 103 570.045 104.353 560.255 107.195L568.62 136.005ZM591.438 133C593.245 133 594.458 133.124 595.195 133.255C595.967 133.393 595.877 133.478 595.319 133.18C594.684 132.841 593.435 131.989 592.399 130.328C591.333 128.619 591.038 126.929 591.038 125.8H621.038C621.038 122.071 620.134 118.106 617.851 114.447C615.598 110.836 612.525 108.359 609.456 106.72C603.765 103.68 597.15 103 591.438 103V133ZM591.038 125.8V228.8H621.038V125.8H591.038ZM591.038 228.8C591.038 222.857 594.593 219.362 596.159 218.169C597.618 217.057 598.703 216.791 598.349 216.903C597.803 217.076 595.932 217.495 592.015 217.868L594.86 247.732C599.343 247.305 603.772 246.657 607.426 245.497C609.172 244.943 611.832 243.943 614.341 242.031C616.957 240.038 621.038 235.676 621.038 228.8H591.038ZM592.015 217.868C584.071 218.624 576.279 219 568.638 219V249C577.263 249 586.005 248.576 594.86 247.732L592.015 217.868ZM568.638 219C566.909 219 565.577 218.942 564.587 218.856C563.552 218.766 563.15 218.667 563.186 218.676C563.221 218.685 563.504 218.758 563.948 218.948C564.378 219.13 565.165 219.508 566.088 220.2C567.023 220.902 568.252 222.044 569.297 223.765C570.387 225.561 571.07 227.654 571.208 229.864L541.267 231.736C541.64 237.708 544.984 241.872 548.088 244.2C550.849 246.271 553.763 247.227 555.689 247.724C559.632 248.742 564.227 249 568.638 249V219ZM571.063 228.519L569.063 215.519L539.412 220.081L541.412 233.081L571.063 228.519ZM554.238 202.8H552.638V232.8H554.238V202.8ZM538.085 214.162C537.606 216.078 536.816 217.239 535.711 218.181L555.164 241.019C561.259 235.827 565.269 229.122 567.19 221.438L538.085 214.162ZM535.676 218.211C535.805 218.1 535.644 218.264 534.977 218.613C534.327 218.953 533.359 219.386 531.992 219.874L542.083 248.126C546.616 246.507 551.351 244.288 555.199 240.989L535.676 218.211ZM532.294 219.77C530.528 220.358 528.048 220.8 524.638 220.8V250.8C530.56 250.8 536.347 250.042 541.781 248.23L532.294 219.77ZM625.784 229.4L619.791 243.15L619.909 243.202L620.028 243.251L625.784 229.4ZM622.784 203.6L609.036 197.601L609.036 197.601L622.784 203.6ZM644.584 197L639.183 210.994L639.224 211.01L639.265 211.025L644.584 197ZM674.384 200.4L669 186.4L668.806 186.474L668.615 186.554L674.384 200.4ZM672.984 192L666.829 205.679L667.119 205.809L667.414 205.927L672.984 192ZM662.984 189.6L664.477 174.674L664.477 174.674L662.984 189.6ZM649.984 187.2L646.146 201.701L646.197 201.714L646.249 201.727L649.984 187.2ZM637.184 182.6L630.841 196.193L630.841 196.193L637.184 182.6ZM627.184 173.4L614.356 181.175L614.41 181.263L614.464 181.35L627.184 173.4ZM623.584 148.2L638.493 149.856L638.497 149.813L638.502 149.77L623.584 148.2ZM626.784 137.8L613.061 131.745L613.017 131.843L612.976 131.942L626.784 137.8ZM634.984 126.8L625.775 114.96L625.667 115.044L625.559 115.131L634.984 126.8ZM651.384 119.2L647.027 104.847L646.991 104.858L646.955 104.869L651.384 119.2ZM699.384 116.8L697.763 131.712L697.938 131.731L698.112 131.746L699.384 116.8ZM713.984 119L710.085 133.484L710.152 133.502L710.22 133.52L713.984 119ZM722.784 122.2L715.766 135.457L715.829 135.49L715.893 135.523L722.784 122.2ZM699.784 153.6L695.119 167.856L695.236 167.894L695.355 167.931L699.784 153.6ZM680.784 159.4L676.664 173.823L676.963 173.908L677.265 173.981L680.784 159.4ZM694.584 162.4L691.643 177.109L691.643 177.109L694.584 162.4ZM710.584 167L705.318 181.045L705.526 181.123L705.737 181.195L710.584 167ZM724.384 177.4L712.309 186.298L712.383 186.4L712.46 186.5L724.384 177.4ZM674.384 220.8C652.659 220.8 638.946 218.626 631.541 215.549L620.028 243.251C633.156 248.707 651.843 250.8 674.384 250.8V220.8ZM631.778 215.65C629.753 214.767 629.316 214.339 629.624 214.599C629.821 214.766 630.576 215.432 631.334 216.695C632.148 218.051 632.984 220.15 632.984 222.8H602.984C602.984 230.347 607.564 235.232 610.245 237.501C613.153 239.961 616.616 241.767 619.791 243.15L631.778 215.65ZM632.984 222.8C632.984 220.124 633.807 215.844 636.532 209.599L609.036 197.601C605.361 206.023 602.984 214.542 602.984 222.8H632.984ZM636.532 209.599C637.202 208.065 637.786 206.871 638.278 205.97C638.782 205.046 639.101 204.592 639.206 204.454C639.358 204.255 638.973 204.827 637.953 205.546C636.888 206.298 634.545 207.6 631.184 207.6V177.6C622.407 177.6 617.184 183.861 615.363 186.246C612.888 189.487 610.822 193.51 609.036 197.601L636.532 209.599ZM631.184 207.6C630.136 207.6 629.407 207.472 629.271 207.449C629.047 207.41 628.97 207.386 629.095 207.417C629.349 207.482 629.905 207.64 630.855 207.951C632.733 208.568 635.477 209.563 639.183 210.994L649.986 183.006C646.092 181.503 642.803 180.299 640.214 179.449C638.93 179.027 637.645 178.635 636.449 178.333C635.632 178.126 633.534 177.6 631.184 177.6V207.6ZM639.265 211.025C647.813 214.268 656.215 216.4 663.984 216.4V186.4C661.354 186.4 656.822 185.599 649.904 182.975L639.265 211.025ZM663.984 216.4C666.908 216.4 669.63 216.311 672.02 216.081C674.058 215.885 677.187 215.482 680.154 214.246L668.615 186.554C669.08 186.36 669.434 186.251 669.622 186.198C669.818 186.143 669.929 186.122 669.93 186.121C669.935 186.12 669.873 186.133 669.733 186.152C669.595 186.171 669.403 186.194 669.149 186.219C668.072 186.322 666.394 186.4 663.984 186.4V216.4ZM679.769 214.4C682.868 213.208 686.23 211.05 688.714 207.42C691.194 203.796 691.984 199.894 691.984 196.6H661.984C661.984 195.173 662.342 192.837 663.955 190.48C665.572 188.116 667.634 186.925 669 186.4L679.769 214.4ZM691.984 196.6C691.984 185.82 683.978 180.242 678.555 178.073L667.414 205.927C667.392 205.919 666.074 205.413 664.665 203.793C663 201.878 661.984 199.28 661.984 196.6H691.984ZM679.14 178.321C674.559 176.26 669.529 175.18 664.477 174.674L661.492 204.526C664.44 204.82 666.077 205.34 666.829 205.679L679.14 178.321ZM664.477 174.674C661.365 174.363 657.79 173.719 653.72 172.673L646.249 201.727C651.512 203.081 656.604 204.037 661.492 204.526L664.477 174.674ZM653.823 172.699C650.097 171.713 646.673 170.475 643.528 169.007L630.841 196.193C635.696 198.458 640.806 200.287 646.146 201.701L653.823 172.699ZM643.528 169.007C642.507 168.531 641.256 167.613 639.904 165.45L614.464 181.35C618.446 187.721 623.861 192.936 630.841 196.193L643.528 169.007ZM640.012 165.625C638.703 163.465 638.184 161.471 638.184 159.4H608.184C608.184 167.195 610.333 174.535 614.356 181.175L640.012 165.625ZM638.184 159.4C638.184 154.424 638.323 151.385 638.493 149.856L608.676 146.544C608.313 149.815 608.184 154.243 608.184 159.4H638.184ZM638.502 149.77C638.501 149.777 638.564 149.273 638.921 148.111C639.265 146.995 639.802 145.524 640.593 143.658L612.976 131.942C610.943 136.734 609.17 141.846 608.667 146.63L638.502 149.77ZM640.508 143.855C641.653 141.26 643.003 139.605 644.409 138.469L625.559 115.131C620.033 119.595 615.916 125.273 613.061 131.745L640.508 143.855ZM644.193 138.64C645.713 137.458 649.194 135.577 655.814 133.531L646.955 104.869C638.908 107.356 631.455 110.542 625.775 114.96L644.193 138.64ZM655.742 133.553C661.569 131.784 668.404 130.8 676.384 130.8V100.8C665.965 100.8 656.133 102.083 647.027 104.847L655.742 133.553ZM676.384 130.8C685.278 130.8 692.36 131.125 697.763 131.712L701.005 101.888C694.142 101.142 685.891 100.8 676.384 100.8V130.8ZM698.112 131.746C704.046 132.251 707.887 132.892 710.085 133.484L717.884 104.516C713.149 103.241 707.256 102.416 700.656 101.854L698.112 131.746ZM710.22 133.52C713.148 134.279 714.879 134.987 715.766 135.457L729.803 108.943C726.157 107.013 722.021 105.588 717.749 104.48L710.22 133.52ZM715.893 135.523C716.898 136.043 716.58 136.063 715.867 135.252C714.981 134.244 713.584 132.004 713.584 128.8H743.584C743.584 117.316 734.401 111.321 729.676 108.877L715.893 135.523ZM713.584 128.8C713.584 130.535 712.906 133.988 709.836 139.581L736.133 154.019C740.529 146.012 743.584 137.465 743.584 128.8H713.584ZM709.836 139.581C709.049 141.014 708.371 142.139 707.803 142.999C707.224 143.877 706.848 144.343 706.687 144.526C706.479 144.761 706.801 144.332 707.686 143.76C708.558 143.198 710.758 142 713.984 142V172C722.145 172 727.353 166.448 729.182 164.374C731.75 161.464 734.053 157.808 736.133 154.019L709.836 139.581ZM713.984 142C714.617 142 714.826 142.068 714.34 141.988C713.941 141.922 713.288 141.792 712.327 141.562C710.401 141.101 707.725 140.354 704.214 139.269L695.355 167.931C699.177 169.112 702.535 170.066 705.342 170.738C707.774 171.32 710.995 172 713.984 172V142ZM704.45 139.344C696.996 136.905 689.628 135 683.584 135V165C684.474 165 687.906 165.495 695.119 167.856L704.45 139.344ZM683.584 135C679.847 135 674.617 135.448 669.842 138.176C663.814 141.621 660.184 147.765 660.184 154.8H690.184C690.184 156.247 689.846 158.235 688.666 160.258C687.489 162.275 685.941 163.53 684.726 164.224C682.751 165.352 681.721 165 683.584 165V135ZM660.184 154.8C660.184 161.226 663.457 166.079 667.063 169.041C670.257 171.665 673.881 173.028 676.664 173.823L684.905 144.977C683.955 144.706 684.778 144.769 686.105 145.859C686.864 146.482 687.927 147.559 688.797 149.206C689.706 150.926 690.184 152.86 690.184 154.8H660.184ZM677.265 173.981C681.378 174.974 686.181 176.016 691.643 177.109L697.526 147.691C692.322 146.65 687.924 145.693 684.304 144.819L677.265 173.981ZM691.643 177.109C696.148 178.01 700.705 179.315 705.318 181.045L715.851 152.955C709.797 150.685 703.687 148.924 697.526 147.691L691.643 177.109ZM705.737 181.195C708.051 181.985 710.218 183.461 712.309 186.298L736.46 168.502C731.084 161.205 724.051 155.748 715.432 152.805L705.737 181.195ZM712.46 186.5C713.935 188.432 715.184 191.435 715.184 196.6H745.184C745.184 186.299 742.567 176.501 736.309 168.3L712.46 186.5ZM715.184 196.6C715.184 205.624 712.27 210.453 707.612 213.726C701.986 217.678 691.687 220.8 674.384 220.8V250.8C694.282 250.8 711.883 247.388 724.857 238.274C738.798 228.48 745.184 213.709 745.184 196.6H715.184ZM806.05 151.8L791.278 154.407L791.278 154.407L806.05 151.8ZM784.65 232.8L786.193 247.72L786.321 247.707L786.447 247.692L784.65 232.8ZM745.45 233L740.183 247.045L740.576 247.192L740.976 247.317L745.45 233ZM753.85 82.2L748.743 68.096L748.743 68.096L753.85 82.2ZM795.25 83L783.077 91.7646L783.162 91.8831L783.25 92L795.25 83ZM796.45 115.8L811.263 118.161L811.45 116.988V115.8H796.45ZM794.25 129.6L779.437 127.239L776.669 144.6H794.25V129.6ZM795.65 129.6V144.6H803.678L808.131 137.92L795.65 129.6ZM804.45 122.2L811.509 135.435L811.521 135.429L811.533 135.422L804.45 122.2ZM854.45 128.4L841.257 135.537L841.327 135.667L841.4 135.795L854.45 128.4ZM849.45 232.8L850.993 247.72L851.105 247.709L851.217 247.696L849.45 232.8ZM810.45 233L805.183 247.045L805.576 247.192L805.976 247.317L810.45 233ZM822.25 229.2V173.6H792.25V229.2H822.25ZM822.25 173.6C822.25 163.495 821.866 155.108 820.822 149.193L791.278 154.407C791.834 157.558 792.25 163.705 792.25 173.6H822.25ZM820.822 149.193C820.189 145.609 818.813 140.953 815.413 136.966C811.501 132.38 806.027 130 800.25 130V160C799.132 160 797.682 159.784 796.144 159.087C794.595 158.384 793.41 157.399 792.587 156.434C791.12 154.714 791.111 153.458 791.278 154.407L820.822 149.193ZM800.25 130C795.186 130 789.25 131.949 785.197 137.422C781.767 142.051 781.25 147.186 781.25 150.4H811.25C811.25 150.408 811.25 150.517 811.229 150.713C811.209 150.907 811.164 151.223 811.063 151.633C810.865 152.434 810.399 153.8 809.303 155.278C808.144 156.844 806.547 158.165 804.655 159.016C802.849 159.829 801.257 160 800.25 160V130ZM781.25 150.4V229.2H811.25V150.4H781.25ZM781.25 229.2C781.25 222.227 785.931 218.645 787.009 217.902C788.36 216.97 789.309 216.748 788.904 216.874C788.297 217.062 786.482 217.47 782.853 217.908L786.447 247.692C790.551 247.197 794.536 246.538 797.796 245.526C799.325 245.052 801.724 244.196 804.041 242.598C806.086 241.188 811.25 236.907 811.25 229.2H781.25ZM783.107 217.88C775.909 218.624 768.491 219 760.85 219V249C769.475 249 777.924 248.576 786.193 247.72L783.107 217.88ZM760.85 219C756.945 219 753.986 218.919 751.872 218.782C750.817 218.713 750.1 218.638 749.657 218.578C749.122 218.504 749.324 218.495 749.924 218.683L740.976 247.317C743.907 248.233 747.305 248.548 749.928 248.718C752.948 248.915 756.622 249 760.85 249V219ZM750.717 218.955C751.197 219.135 752.891 219.849 754.524 221.788C756.381 223.993 757.25 226.71 757.25 229.2H727.25C727.25 233.423 728.653 237.64 731.576 241.112C734.276 244.318 737.57 246.065 740.183 247.045L750.717 218.955ZM757.25 229.2V90.6H727.25V229.2H757.25ZM757.25 90.6C757.25 93.548 756.187 95.7645 755.318 97.0228C754.53 98.164 753.848 98.6213 753.948 98.5491C753.999 98.5122 754.388 98.2469 755.296 97.8083C756.18 97.3818 757.38 96.8748 758.957 96.304L748.743 68.096C744.363 69.6818 739.948 71.6471 736.352 74.2509C733.233 76.5095 727.25 81.8126 727.25 90.6H757.25ZM758.957 96.304C764.992 94.1189 771.392 93 778.25 93V63C768.042 63 758.175 64.6811 748.743 68.096L758.957 96.304ZM778.25 93C781.938 93 784.02 93.3617 784.968 93.6405C785.962 93.9329 784.517 93.764 783.077 91.7646L807.423 74.2354C803.583 68.9026 798.105 66.2338 793.432 64.8595C788.714 63.4716 783.496 63 778.25 63V93ZM783.25 92C782.33 90.7738 781.45 88.8056 781.45 86.4H811.45C811.45 81.5944 809.77 77.3595 807.25 74L783.25 92ZM781.45 86.4V115.8H811.45V86.4H781.45ZM781.637 113.439L779.437 127.239L809.063 131.961L811.263 118.161L781.637 113.439ZM794.25 144.6H795.65V114.6H794.25V144.6ZM808.131 137.92C808.23 137.772 808.968 136.791 811.509 135.435L797.391 108.965C791.932 111.876 786.804 115.828 783.169 121.28L808.131 137.92ZM811.533 135.422C816.735 132.635 822.422 131.2 828.85 131.2V101.2C817.678 101.2 807.098 103.765 797.367 108.978L811.533 135.422ZM828.85 131.2C838.333 131.2 840.423 133.997 841.257 135.537L867.643 121.263C859.677 106.537 844.701 101.2 828.85 101.2V131.2ZM841.4 135.795C843.922 140.246 846.25 149.992 846.25 167.6H876.25C876.25 148.941 874.045 132.554 867.5 121.005L841.4 135.795ZM846.25 167.6V229.2H876.25V167.6H846.25ZM846.25 229.2C846.25 222.107 851.077 218.524 852.095 217.834C853.431 216.928 854.356 216.721 853.923 216.853C853.265 217.054 851.384 217.465 847.683 217.904L851.217 247.696C855.383 247.201 859.402 246.546 862.677 245.547C864.211 245.079 866.61 244.238 868.93 242.666C870.931 241.309 876.25 237.027 876.25 229.2H846.25ZM847.907 217.88C840.709 218.624 833.291 219 825.65 219V249C834.275 249 842.724 248.576 850.993 247.72L847.907 217.88ZM825.65 219C821.815 219 818.91 218.919 816.835 218.782C815.799 218.714 815.096 218.64 814.664 218.58C814.142 218.508 814.338 218.5 814.924 218.683L805.976 247.317C808.893 248.229 812.258 248.546 814.865 248.718C817.857 248.914 821.485 249 825.65 249V219ZM815.717 218.955C816.197 219.135 817.891 219.849 819.524 221.788C821.381 223.993 822.25 226.71 822.25 229.2H792.25C792.25 233.423 793.653 237.64 796.576 241.112C799.276 244.318 802.57 246.065 805.183 247.045L815.717 218.955Z" fill="black" mask="url(#path-1-outside-1_274_21)"/>
<mask id="path-3-outside-2_274_21" maskUnits="userSpaceOnUse" x="-9.68054" y="51.8637" width="668.942" height="431.033" fill="black">
<rect fill="white" x="-9.68054" y="51.8637" width="668.942" height="431.033"/>
<path d="M91.2146 62.6992C122.708 62.8426 157.214 77.0624 194.732 105.359C252.525 152.79 281.287 205.949 281.019 264.835L280.911 288.566C280.718 330.899 266.17 373.021 237.268 414.931C219.449 435.65 204.745 447.888 193.155 451.644C167.758 463.833 143.999 469.877 121.88 469.777C86.5781 469.616 62.338 452.806 49.1601 419.347L45.7166 403.511C31.0203 413.991 21.9143 419.223 18.3987 419.207C6.70879 412.855 0.886833 404.625 0.932867 394.518C0.972897 385.729 8.3304 378.438 23.0054 372.646C55.313 354.922 84.4073 335.132 110.288 313.277C129.108 297.982 138.553 282.79 138.621 267.702L138.625 266.824C138.708 248.66 130.264 237.195 113.293 232.43L104.504 232.39C84.8757 232.301 69.2951 243.949 57.7627 267.334L56.8518 274.361C56.8178 281.832 60.304 288.293 67.3105 293.745L73.4628 293.773C81.6658 293.81 89.0393 283.004 95.5833 261.354C101.025 256.691 106.016 254.37 110.557 254.391L111.435 254.395C121.25 254.44 126.783 261.789 128.034 276.443L128.03 277.322C127.966 291.531 115.586 307.881 90.8926 326.372C81.499 330.431 74.1655 332.449 68.8922 332.425L62.7399 332.397C42.6717 332.305 28.6654 319.937 20.7209 295.291L19.0352 279.463C19.156 252.949 35.3825 228.12 67.7148 204.976C83.2793 196.844 97.3604 192.807 109.958 192.864C139.254 192.997 160.276 208.914 173.022 240.613C175.327 249.119 176.467 256.156 176.442 261.722C176.314 289.847 153.605 322.849 108.314 360.729C92.5707 376.039 84.6099 387.135 84.4321 394.019C88.4776 406.343 94.2995 414.572 101.898 418.709C110.809 424.023 120.465 426.703 130.866 426.751C168.512 426.922 200.862 399.823 227.917 345.454C238.003 317.814 243.097 292.934 243.198 270.815C242.13 247.959 240.424 236.525 238.081 236.514C193.901 223.569 144.234 193.167 89.0805 145.308C66.3306 122.938 54.9903 104.136 55.0597 88.902C55.1111 77.6228 62.7682 68.8685 78.0311 62.6392L91.2146 62.6992ZM105.94 110.228C112.927 119.928 124.306 130.233 140.077 141.145C174.098 165.324 200.984 180.095 220.735 185.458C188.589 135.507 150.324 110.43 105.94 110.228ZM360.406 202.354L377.984 202.434C395.708 202.515 419.378 215.807 448.994 242.309L457.787 241.47L461.303 241.486C522.239 241.764 575.679 280.093 621.62 356.475C638.451 392.002 646.803 423.681 646.676 451.512L646.66 455.028C641.198 464.378 635.317 469.039 629.018 469.01L628.139 469.006C620.522 468.972 613.809 463.375 608.001 452.215C608.135 422.772 593.069 385.789 562.802 341.266C531.338 302.45 499.493 282.969 467.267 282.822L453.204 282.758C449.103 282.74 447.039 285.66 447.012 291.519L447 294.156C446.966 301.627 458.655 308.125 482.068 313.652C513.643 328.005 535.811 349.493 548.572 378.116L551.995 398.346L551.959 406.256C551.851 429.987 538.296 447.21 511.294 457.927C505.134 459.657 498.977 460.508 492.825 460.48L491.946 460.476C474.222 460.395 455.796 453.573 436.668 440.009L435.789 440.005C420.024 459.855 400.057 469.725 375.888 469.615C346.738 469.482 327.186 452.401 317.234 418.371L315.544 403.422L315.572 397.269C315.717 365.483 333.459 329.528 368.798 289.405C387.339 271.032 400.279 260.251 407.618 257.062C396.821 247.638 385.124 242.897 372.526 242.84L371.647 242.836C347.184 242.724 327.181 260.504 311.638 296.176C306.932 300.256 302.528 302.287 298.426 302.268L295.79 302.256C284.082 299.859 278.258 291.923 278.32 278.446C282.797 260.302 295.191 240.73 315.502 219.728C332.401 208.086 347.369 202.295 360.406 202.354ZM350.752 392.156C350.648 415.008 359.083 428.523 376.056 432.702L383.087 432.734C400.665 432.814 409.561 409.416 409.774 362.542C409.809 354.925 415.104 350.261 425.658 348.552L429.174 348.568C442.65 348.629 449.361 354.812 449.305 367.116C453.16 388.96 459.24 404.809 467.545 414.661C475.282 420.556 482.593 423.519 489.478 423.55L494.747 424.453C506.466 424.506 512.354 418.088 512.413 405.197C512.506 384.69 503.216 366.19 484.54 349.699C480.745 346.752 463.78 340.815 433.645 331.889C424.296 325.987 417.883 318.926 414.405 310.707C413.414 303.085 412.553 299.273 411.82 299.269C387.01 311.168 367.86 334.519 354.372 369.321L350.752 392.156Z"/>
</mask>
<path d="M91.2146 62.6992C122.708 62.8426 157.214 77.0624 194.732 105.359C252.525 152.79 281.287 205.949 281.019 264.835L280.911 288.566C280.718 330.899 266.17 373.021 237.268 414.931C219.449 435.65 204.745 447.888 193.155 451.644C167.758 463.833 143.999 469.877 121.88 469.777C86.5781 469.616 62.338 452.806 49.1601 419.347L45.7166 403.511C31.0203 413.991 21.9143 419.223 18.3987 419.207C6.70879 412.855 0.886833 404.625 0.932867 394.518C0.972897 385.729 8.3304 378.438 23.0054 372.646C55.313 354.922 84.4073 335.132 110.288 313.277C129.108 297.982 138.553 282.79 138.621 267.702L138.625 266.824C138.708 248.66 130.264 237.195 113.293 232.43L104.504 232.39C84.8757 232.301 69.2951 243.949 57.7627 267.334L56.8518 274.361C56.8178 281.832 60.304 288.293 67.3105 293.745L73.4628 293.773C81.6658 293.81 89.0393 283.004 95.5833 261.354C101.025 256.691 106.016 254.37 110.557 254.391L111.435 254.395C121.25 254.44 126.783 261.789 128.034 276.443L128.03 277.322C127.966 291.531 115.586 307.881 90.8926 326.372C81.499 330.431 74.1655 332.449 68.8922 332.425L62.7399 332.397C42.6717 332.305 28.6654 319.937 20.7209 295.291L19.0352 279.463C19.156 252.949 35.3825 228.12 67.7148 204.976C83.2793 196.844 97.3604 192.807 109.958 192.864C139.254 192.997 160.276 208.914 173.022 240.613C175.327 249.119 176.467 256.156 176.442 261.722C176.314 289.847 153.605 322.849 108.314 360.729C92.5707 376.039 84.6099 387.135 84.4321 394.019C88.4776 406.343 94.2995 414.572 101.898 418.709C110.809 424.023 120.465 426.703 130.866 426.751C168.512 426.922 200.862 399.823 227.917 345.454C238.003 317.814 243.097 292.934 243.198 270.815C242.13 247.959 240.424 236.525 238.081 236.514C193.901 223.569 144.234 193.167 89.0805 145.308C66.3306 122.938 54.9903 104.136 55.0597 88.902C55.1111 77.6228 62.7682 68.8685 78.0311 62.6392L91.2146 62.6992ZM105.94 110.228C112.927 119.928 124.306 130.233 140.077 141.145C174.098 165.324 200.984 180.095 220.735 185.458C188.589 135.507 150.324 110.43 105.94 110.228ZM360.406 202.354L377.984 202.434C395.708 202.515 419.378 215.807 448.994 242.309L457.787 241.47L461.303 241.486C522.239 241.764 575.679 280.093 621.62 356.475C638.451 392.002 646.803 423.681 646.676 451.512L646.66 455.028C641.198 464.378 635.317 469.039 629.018 469.01L628.139 469.006C620.522 468.972 613.809 463.375 608.001 452.215C608.135 422.772 593.069 385.789 562.802 341.266C531.338 302.45 499.493 282.969 467.267 282.822L453.204 282.758C449.103 282.74 447.039 285.66 447.012 291.519L447 294.156C446.966 301.627 458.655 308.125 482.068 313.652C513.643 328.005 535.811 349.493 548.572 378.116L551.995 398.346L551.959 406.256C551.851 429.987 538.296 447.21 511.294 457.927C505.134 459.657 498.977 460.508 492.825 460.48L491.946 460.476C474.222 460.395 455.796 453.573 436.668 440.009L435.789 440.005C420.024 459.855 400.057 469.725 375.888 469.615C346.738 469.482 327.186 452.401 317.234 418.371L315.544 403.422L315.572 397.269C315.717 365.483 333.459 329.528 368.798 289.405C387.339 271.032 400.279 260.251 407.618 257.062C396.821 247.638 385.124 242.897 372.526 242.84L371.647 242.836C347.184 242.724 327.181 260.504 311.638 296.176C306.932 300.256 302.528 302.287 298.426 302.268L295.79 302.256C284.082 299.859 278.258 291.923 278.32 278.446C282.797 260.302 295.191 240.73 315.502 219.728C332.401 208.086 347.369 202.295 360.406 202.354ZM350.752 392.156C350.648 415.008 359.083 428.523 376.056 432.702L383.087 432.734C400.665 432.814 409.561 409.416 409.774 362.542C409.809 354.925 415.104 350.261 425.658 348.552L429.174 348.568C442.65 348.629 449.361 354.812 449.305 367.116C453.16 388.96 459.24 404.809 467.545 414.661C475.282 420.556 482.593 423.519 489.478 423.55L494.747 424.453C506.466 424.506 512.354 418.088 512.413 405.197C512.506 384.69 503.216 366.19 484.54 349.699C480.745 346.752 463.78 340.815 433.645 331.889C424.296 325.987 417.883 318.926 414.405 310.707C413.414 303.085 412.553 299.273 411.82 299.269C387.01 311.168 367.86 334.519 354.372 369.321L350.752 392.156Z" fill="black"/>
<path d="M194.732 105.359L201.076 97.6287L200.918 97.4984L200.754 97.3747L194.732 105.359ZM237.268 414.931L244.85 421.451L245.198 421.047L245.5 420.608L237.268 414.931ZM193.155 451.644L190.072 442.131L189.434 442.338L188.828 442.629L193.155 451.644ZM49.1601 419.347L39.3885 421.472L39.56 422.261L39.8558 423.012L49.1601 419.347ZM45.7166 403.511L55.4882 401.386L52.2642 386.56L39.9106 395.369L45.7166 403.511ZM18.3987 419.207L13.6242 427.994L15.836 429.196L18.3532 429.207L18.3987 419.207ZM23.0054 372.646L26.677 381.947L27.2629 381.716L27.8152 381.413L23.0054 372.646ZM110.288 313.277L103.981 305.517L103.908 305.576L103.837 305.637L110.288 313.277ZM113.293 232.43L115.997 222.803L114.693 222.437L113.339 222.431L113.293 232.43ZM57.7627 267.334L48.794 262.911L48.0592 264.401L47.8457 266.049L57.7627 267.334ZM56.8518 274.361L46.9348 273.076L46.8547 273.693L46.8519 274.316L56.8518 274.361ZM67.3105 293.745L61.1694 301.637L63.8582 303.729L67.265 303.745L67.3105 293.745ZM95.5833 261.354L89.0763 253.761L86.8568 255.663L86.011 258.461L95.5833 261.354ZM128.034 276.443L138.034 276.489L138.036 276.04L137.998 275.592L128.034 276.443ZM90.8926 326.372L94.859 335.552L95.9421 335.084L96.8866 334.377L90.8926 326.372ZM20.7209 295.291L10.7772 296.35L10.8865 297.376L11.2032 298.359L20.7209 295.291ZM19.0352 279.463L9.0353 279.417L9.03278 279.971L9.09143 280.522L19.0352 279.463ZM67.7148 204.976L63.0839 196.113L62.4634 196.438L61.8942 196.845L67.7148 204.976ZM173.022 240.613L182.674 237.997L182.52 237.429L182.3 236.882L173.022 240.613ZM108.314 360.729L101.899 353.059L101.611 353.299L101.343 353.56L108.314 360.729ZM84.4321 394.019L74.4354 393.761L74.3907 395.493L74.931 397.138L84.4321 394.019ZM101.898 418.709L107.02 410.12L106.851 410.019L106.679 409.926L101.898 418.709ZM227.917 345.454L236.869 349.909L237.119 349.408L237.311 348.882L227.917 345.454ZM243.198 270.815L253.198 270.861L253.199 270.605L253.187 270.349L243.198 270.815ZM238.081 236.514L235.269 246.111L236.624 246.508L238.035 246.514L238.081 236.514ZM89.0805 145.308L82.0693 152.438L82.2914 152.656L82.5266 152.86L89.0805 145.308ZM78.0311 62.6392L78.0767 52.6393L76.0909 52.6302L74.2524 53.3806L78.0311 62.6392ZM105.94 110.228L105.985 100.228L86.3477 100.138L97.8256 116.073L105.94 110.228ZM140.077 141.145L145.87 132.994L145.818 132.958L145.766 132.922L140.077 141.145ZM220.735 185.458L218.114 195.109L243.226 201.928L229.144 180.047L220.735 185.458ZM91.1691 72.6991C119.676 72.8289 152.108 85.7368 188.711 113.342L200.754 97.3747C162.32 68.3881 125.74 52.8563 91.2601 52.6993L91.1691 72.6991ZM188.388 113.089C244.536 159.171 271.27 209.697 271.019 264.79L291.019 264.881C291.304 202.201 260.513 146.41 201.076 97.6287L188.388 113.089ZM271.019 264.79L270.911 288.52L290.91 288.611L291.019 264.881L271.019 264.79ZM270.911 288.52C270.729 328.463 257.031 368.659 229.036 409.253L245.5 420.608C275.31 377.383 290.707 333.335 290.91 288.611L270.911 288.52ZM229.686 408.41C211.914 429.076 198.776 439.31 190.072 442.131L196.238 461.157C210.713 456.466 226.984 442.225 244.85 421.451L229.686 408.41ZM188.828 442.629C164.433 454.337 142.176 459.869 121.926 459.777L121.835 479.777C145.823 479.886 171.082 473.33 197.482 460.66L188.828 442.629ZM121.926 459.777C105.891 459.704 93.0768 455.873 82.9221 448.831C72.7539 441.78 64.4888 430.979 58.4645 415.683L39.8558 423.012C47.0093 441.175 57.4531 455.508 71.525 465.266C85.6104 475.034 102.568 479.689 121.835 479.777L121.926 459.777ZM58.9318 417.223L55.4882 401.386L35.9449 405.636L39.3885 421.472L58.9318 417.223ZM39.9106 395.369C32.6689 400.533 27.0226 404.246 22.883 406.625C20.805 407.818 19.2906 408.569 18.2643 408.993C16.976 409.526 17.264 409.202 18.4443 409.207L18.3532 429.207C21.2912 429.22 24.0358 428.249 25.9029 427.477C28.032 426.597 30.3718 425.388 32.8468 423.966C37.8131 421.112 44.068 416.969 51.5226 411.653L39.9106 395.369ZM23.1732 410.421C13.5319 405.182 10.9089 399.812 10.9328 394.564L-9.06703 394.472C-9.13519 409.439 -0.114315 420.528 13.6242 427.994L23.1732 410.421ZM10.9328 394.564C10.9423 392.479 12.574 387.514 26.677 381.947L19.3338 363.344C4.08681 369.362 -8.99646 378.979 -9.06703 394.472L10.9328 394.564ZM27.8152 381.413C60.6558 363.396 90.3085 343.237 116.74 320.917L103.837 305.637C78.5062 327.027 49.9702 346.447 18.1956 363.878L27.8152 381.413ZM116.595 321.037C136.34 304.99 148.532 287.259 148.621 267.748L128.621 267.657C128.573 278.322 121.877 290.973 103.981 305.517L116.595 321.037ZM148.621 267.748L148.625 266.869L128.625 266.778L128.621 267.657L148.621 267.748ZM148.625 266.869C148.674 256.234 146.216 246.561 140.406 238.672C134.574 230.753 126.105 225.641 115.997 222.803L110.59 242.058C117.453 243.985 121.691 246.987 124.303 250.533C126.936 254.108 128.66 259.249 128.625 266.778L148.625 266.869ZM113.339 222.431L104.55 222.391L104.459 242.39L113.248 242.43L113.339 222.431ZM104.55 222.391C79.814 222.278 61.3642 237.422 48.794 262.911L66.7314 271.757C77.2261 250.476 89.9374 242.324 104.459 242.39L104.55 222.391ZM47.8457 266.049L46.9348 273.076L66.7688 275.647L67.6797 268.62L47.8457 266.049ZM46.8519 274.316C46.801 285.489 52.2326 294.683 61.1694 301.637L73.4516 285.853C68.3754 281.903 66.8345 278.175 66.8517 274.407L46.8519 274.316ZM67.265 303.745L73.4172 303.773L73.5083 283.773L67.356 283.745L67.265 303.745ZM73.4172 303.773C82.4567 303.814 88.9926 297.8 93.4055 291.333C97.9373 284.691 101.77 275.447 105.156 264.247L86.011 258.461C82.8524 268.911 79.7266 275.895 76.8849 280.06C73.9242 284.399 72.6719 283.769 73.5083 283.773L73.4172 303.773ZM102.09 268.947C106.707 264.991 109.424 264.386 110.511 264.391L110.602 244.391C102.607 244.355 95.3421 248.391 89.0763 253.761L102.09 268.947ZM110.511 264.391L111.39 264.395L111.481 244.395L110.602 244.391L110.511 264.391ZM111.39 264.395C113.415 264.404 114.211 264.965 114.957 265.955C116.105 267.48 117.518 270.821 118.071 277.294L137.998 275.592C137.299 267.412 135.32 259.751 130.935 253.926C126.148 247.567 119.271 244.43 111.481 244.395L111.39 264.395ZM118.035 276.398L118.031 277.277L138.03 277.368L138.034 276.489L118.035 276.398ZM118.031 277.277C118.012 281.446 116.167 287.017 110.725 294.205C105.307 301.361 96.8338 309.431 84.8987 318.368L96.8866 334.377C109.645 324.823 119.709 315.472 126.67 306.278C133.607 297.115 137.985 287.407 138.03 277.368L118.031 277.277ZM86.9262 317.193C77.831 321.123 72.0675 322.439 68.9377 322.425L68.8466 342.424C76.2636 342.458 85.1671 339.74 94.859 335.552L86.9262 317.193ZM68.9377 322.425L62.7854 322.397L62.6943 342.396L68.8466 342.424L68.9377 322.425ZM62.7854 322.397C54.9792 322.361 48.8503 320.013 43.8033 315.556C38.5686 310.933 33.8631 303.467 30.2387 292.223L11.2032 298.359C15.5232 311.761 21.7931 322.801 30.5648 330.547C39.5241 338.459 50.4324 342.341 62.6943 342.396L62.7854 322.397ZM30.6647 294.232L28.979 278.404L9.09143 280.522L10.7772 296.35L30.6647 294.232ZM29.0351 279.508C29.135 257.575 42.4523 235.358 73.5354 213.108L61.8942 196.845C28.3127 220.883 9.17692 248.324 9.0353 279.417L29.0351 279.508ZM72.3457 213.84C87.0044 206.181 99.4569 202.816 109.912 202.864L110.003 182.864C95.2639 182.797 79.5543 187.508 63.0839 196.113L72.3457 213.84ZM109.912 202.864C122.65 202.922 133.066 206.367 141.66 212.874C150.358 219.459 157.851 229.688 163.744 244.343L182.3 236.882C175.447 219.838 166.057 206.26 153.733 196.929C141.306 187.52 126.562 182.94 110.003 182.864L109.912 202.864ZM163.37 243.228C165.56 251.309 166.462 257.374 166.442 261.677L186.442 261.768C186.473 254.938 185.095 246.93 182.674 237.997L163.37 243.228ZM166.442 261.677C166.39 273.044 161.755 286.379 151.076 301.899C140.416 317.391 124.144 334.453 101.899 353.059L114.73 368.4C137.775 349.126 155.503 330.747 167.552 313.236C179.582 295.754 186.365 278.525 186.442 261.768L166.442 261.677ZM101.343 353.56C93.2694 361.411 86.878 368.478 82.4107 374.705C78.217 380.55 74.6064 387.142 74.4354 393.761L94.4288 394.278C94.4272 394.337 94.4484 393.707 95.135 392.19C95.8 390.721 96.9204 388.79 98.6614 386.363C102.155 381.493 107.616 375.357 115.286 367.899L101.343 353.56ZM74.931 397.138C79.3824 410.698 86.3855 421.65 97.1169 427.492L106.679 409.926C102.214 407.495 97.5727 401.987 93.9332 390.9L74.931 397.138ZM96.7763 427.297C107.227 433.529 118.636 436.695 130.82 436.751L130.911 416.751C122.294 416.712 114.392 414.516 107.02 410.12L96.7763 427.297ZM130.82 436.751C174.282 436.949 209.246 405.421 236.869 349.909L218.964 340.999C192.478 394.226 162.741 416.896 130.911 416.751L130.82 436.751ZM237.311 348.882C247.67 320.494 253.09 294.445 253.198 270.861L233.198 270.77C233.104 291.424 228.337 315.133 218.523 342.025L237.311 348.882ZM253.187 270.349C252.65 258.842 251.939 249.857 251.008 243.622C250.556 240.589 249.979 237.682 249.146 235.329C248.749 234.207 248.071 232.552 246.884 230.993C245.762 229.521 242.903 226.536 238.126 226.515L238.035 246.514C233.844 246.495 231.551 243.87 230.976 243.115C230.334 242.273 230.182 241.691 230.292 242C230.471 242.507 230.827 243.889 231.227 246.573C232.003 251.772 232.679 259.933 233.209 271.282L253.187 270.349ZM240.893 226.918C198.666 214.545 150.269 185.163 95.6345 137.755L82.5266 152.86C138.199 201.17 189.136 232.593 235.269 246.111L240.893 226.918ZM96.0917 138.177C85.0704 127.34 77.1664 117.704 72.0759 109.264C66.9587 100.78 65.0362 94.0906 65.0596 88.9475L45.0598 88.8564C45.0139 98.9476 48.7268 109.276 54.9499 119.594C61.1997 129.956 70.3407 140.905 82.0693 152.438L96.0917 138.177ZM65.0596 88.9475C65.0843 83.5242 68.2741 77.4222 81.8099 71.8977L74.2524 53.3806C57.2624 60.3149 45.1379 71.7214 45.0598 88.8564L65.0596 88.9475ZM77.9856 72.6391L91.1691 72.6991L91.2601 52.6993L78.0767 52.6393L77.9856 72.6391ZM97.8256 116.073C105.759 127.085 118.174 138.151 134.387 149.369L145.766 132.922C130.437 122.316 120.095 112.77 114.054 104.383L97.8256 116.073ZM134.284 149.296C168.479 173.599 196.566 189.257 218.114 195.109L223.356 175.808C205.401 170.932 179.716 157.049 145.87 132.994L134.284 149.296ZM229.144 180.047C195.856 128.32 154.856 100.45 105.985 100.228L105.894 120.228C145.792 120.409 181.323 142.694 212.326 190.87L229.144 180.047ZM448.994 242.309L442.326 249.761L445.587 252.68L449.944 252.264L448.994 242.309ZM457.787 241.47L457.833 231.47L457.334 231.468L456.837 231.515L457.787 241.47ZM621.62 356.475L630.658 352.194L630.445 351.746L630.19 351.321L621.62 356.475ZM646.66 455.028L655.295 460.072L656.648 457.756L656.66 455.074L646.66 455.028ZM608.001 452.215L598.001 452.17L597.989 454.64L599.13 456.832L608.001 452.215ZM562.802 341.266L571.072 335.644L570.836 335.296L570.571 334.969L562.802 341.266ZM482.068 313.652L486.206 304.548L485.316 304.144L484.365 303.919L482.068 313.652ZM548.572 378.116L558.432 376.447L558.221 375.199L557.705 374.044L548.572 378.116ZM551.995 398.346L561.995 398.392L561.999 397.529L561.855 396.678L551.995 398.346ZM511.294 457.927L513.997 467.555L514.499 467.414L514.983 467.222L511.294 457.927ZM436.668 440.009L442.452 431.852L439.874 430.023L436.713 430.009L436.668 440.009ZM435.789 440.005L435.834 430.005L430.978 429.983L427.958 433.786L435.789 440.005ZM317.234 418.371L307.297 419.494L307.394 420.351L307.636 421.178L317.234 418.371ZM315.544 403.422L305.544 403.376L305.541 403.962L305.607 404.545L315.544 403.422ZM368.798 289.405L361.759 282.302L361.518 282.541L361.294 282.796L368.798 289.405ZM407.618 257.062L411.603 266.234L426.11 259.93L414.194 249.528L407.618 257.062ZM311.638 296.176L318.189 303.732L319.9 302.248L320.805 300.171L311.638 296.176ZM295.79 302.256L293.784 312.053L294.754 312.252L295.744 312.256L295.79 302.256ZM278.32 278.446L268.611 276.05L268.325 277.208L268.32 278.401L278.32 278.446ZM315.502 219.728L309.829 211.493L309.007 212.059L308.313 212.776L315.502 219.728ZM350.752 392.156L340.875 390.591L340.756 391.346L340.752 392.111L350.752 392.156ZM376.056 432.702L373.665 442.412L374.82 442.696L376.01 442.701L376.056 432.702ZM425.658 348.552L425.704 338.552L424.876 338.548L424.059 338.68L425.658 348.552ZM449.305 367.116L439.305 367.071L439.301 367.97L439.457 368.855L449.305 367.116ZM467.545 414.661L459.899 421.106L460.609 421.948L461.485 422.615L467.545 414.661ZM489.478 423.55L491.167 413.694L490.351 413.554L489.523 413.55L489.478 423.55ZM494.747 424.453L493.058 434.309L493.874 434.449L494.701 434.453L494.747 424.453ZM484.54 349.699L491.16 342.203L490.923 341.994L490.674 341.8L484.54 349.699ZM433.645 331.889L428.306 340.344L429.477 341.084L430.804 341.477L433.645 331.889ZM414.405 310.707L404.488 311.996L404.664 313.348L405.196 314.604L414.405 310.707ZM411.82 299.269L411.866 289.269L409.568 289.259L407.496 290.253L411.82 299.269ZM354.372 369.321L345.047 365.707L344.662 366.702L344.495 367.755L354.372 369.321ZM360.36 212.354L377.938 212.434L378.029 192.435L360.451 192.355L360.36 212.354ZM377.938 212.434C384.431 212.464 393.059 214.965 404.133 221.183C415.115 227.349 427.835 236.794 442.326 249.761L455.663 234.857C440.537 221.322 426.615 210.869 413.926 203.744C401.33 196.671 389.261 192.486 378.029 192.435L377.938 212.434ZM449.944 252.264L458.737 251.425L456.837 231.515L448.044 232.354L449.944 252.264ZM457.741 251.47L461.257 251.486L461.348 231.486L457.833 231.47L457.741 251.47ZM461.257 251.486C517.244 251.741 568.003 286.734 613.051 361.63L630.19 351.321C583.354 273.453 527.235 231.786 461.348 231.486L461.257 251.486ZM612.583 360.757C629.02 395.452 636.794 425.617 636.676 451.467L656.676 451.558C656.812 421.744 647.882 388.552 630.658 352.194L612.583 360.757ZM636.676 451.467L636.66 454.982L656.66 455.074L656.676 451.558L636.676 451.467ZM638.026 449.984C633.039 458.519 629.775 459.014 629.064 459.01L628.973 479.01C640.859 479.064 649.356 470.237 655.295 460.072L638.026 449.984ZM629.064 459.01L628.185 459.006L628.094 479.006L628.973 479.01L629.064 459.01ZM628.185 459.006C626.287 458.998 622.15 457.739 616.871 447.598L599.13 456.832C605.469 469.01 614.757 478.945 628.094 479.006L628.185 459.006ZM618.001 452.261C618.149 419.719 601.661 380.641 571.072 335.644L554.532 346.888C584.477 390.937 598.121 425.826 598.001 452.17L618.001 452.261ZM570.571 334.969C538.265 295.115 503.877 272.989 467.312 272.823L467.221 292.822C495.108 292.949 524.411 309.786 555.034 347.563L570.571 334.969ZM467.312 272.823L453.25 272.758L453.159 292.758L467.221 292.822L467.312 272.823ZM453.25 272.758C448.49 272.737 443.628 274.616 440.414 279.163C437.658 283.062 437.029 287.684 437.012 291.474L457.012 291.565C457.016 290.651 457.101 290.163 457.142 289.993C457.182 289.824 457.132 290.161 456.746 290.706C456.316 291.315 455.64 291.933 454.768 292.344C453.947 292.73 453.322 292.759 453.159 292.758L453.25 272.758ZM437.012 291.474L437 294.11L457 294.202L457.012 291.565L437.012 291.474ZM437 294.11C436.957 303.691 444.401 309.77 450.882 313.373C457.93 317.291 467.761 320.549 479.771 323.384L484.365 303.919C472.963 301.228 465.242 298.473 460.601 295.893C455.393 292.998 457.01 292.092 457 294.202L437 294.11ZM477.93 322.755C507.537 336.214 527.781 356.04 539.438 382.187L557.705 374.044C543.842 342.946 519.75 319.796 486.206 304.548L477.93 322.755ZM538.712 379.784L542.136 400.015L561.855 396.678L558.432 376.447L538.712 379.784ZM541.996 398.301L541.959 406.211L561.959 406.302L561.995 398.392L541.996 398.301ZM541.959 406.211C541.915 416.044 539.137 424.074 533.854 430.787C528.466 437.632 519.984 443.719 507.605 448.632L514.983 467.222C529.607 461.418 541.402 453.534 549.57 443.156C557.842 432.646 561.896 420.198 561.959 406.302L541.959 406.211ZM508.591 448.299C503.289 449.788 498.057 450.503 492.871 450.48L492.78 470.48C499.898 470.512 506.978 469.526 513.997 467.555L508.591 448.299ZM492.871 450.48L491.992 450.476L491.901 470.476L492.78 470.48L492.871 450.48ZM491.992 450.476C476.895 450.407 460.438 444.605 442.452 431.852L430.883 448.166C451.154 462.54 471.548 470.383 491.901 470.476L491.992 450.476ZM436.713 430.009L435.834 430.005L435.743 450.005L436.622 450.009L436.713 430.009ZM427.958 433.786C413.993 451.371 396.867 459.711 375.933 459.615L375.842 479.615C403.247 479.74 426.056 468.34 443.62 446.224L427.958 433.786ZM375.933 459.615C363.447 459.558 353.682 455.937 345.941 449.174C338.037 442.268 331.462 431.396 326.832 415.564L307.636 421.178C312.958 439.376 321.135 454.06 332.782 464.235C344.593 474.554 359.179 479.539 375.842 479.615L375.933 459.615ZM327.171 417.248L325.481 402.299L305.607 404.545L307.297 419.494L327.171 417.248ZM325.544 403.467L325.572 397.315L305.572 397.224L305.544 403.376L325.544 403.467ZM325.572 397.315C325.7 369.126 341.554 335.466 376.302 296.015L361.294 282.796C325.363 323.59 305.733 361.839 305.572 397.224L325.572 397.315ZM375.837 296.508C385.001 287.428 392.646 280.358 398.81 275.223C405.17 269.924 409.323 267.225 411.603 266.234L403.632 247.891C398.574 250.089 392.587 254.375 386.008 259.857C379.232 265.502 371.136 273.01 361.759 282.302L375.837 296.508ZM414.194 249.528C401.852 238.756 387.902 232.91 372.572 232.84L372.48 252.84C382.346 252.885 391.79 256.52 401.042 264.596L414.194 249.528ZM372.572 232.84L371.693 232.836L371.602 252.836L372.48 252.84L372.572 232.84ZM371.693 232.836C341.134 232.697 318.556 255.266 302.47 292.182L320.805 300.171C335.807 265.743 353.235 252.752 371.602 252.836L371.693 232.836ZM305.087 288.621C301.296 291.908 299.166 292.272 298.472 292.269L298.381 312.268C305.89 312.303 312.568 308.605 318.189 303.732L305.087 288.621ZM298.472 292.269L295.835 292.257L295.744 312.256L298.381 312.268L298.472 292.269ZM297.796 292.46C293.826 291.647 291.848 290.15 290.704 288.59C289.453 286.886 288.295 283.864 288.32 278.492L268.32 278.401C268.283 286.505 270.006 294.189 274.579 300.422C279.258 306.799 286.046 310.469 293.784 312.053L297.796 292.46ZM288.029 280.842C291.909 265.119 302.977 247.064 322.69 226.68L308.313 212.776C287.405 234.396 273.686 255.486 268.611 276.05L288.029 280.842ZM321.175 227.963C337.285 216.865 350.231 212.308 360.36 212.354L360.451 192.355C344.506 192.282 327.517 199.308 309.829 211.493L321.175 227.963ZM340.752 392.111C340.695 404.645 342.955 415.815 348.516 424.725C354.252 433.916 362.919 439.766 373.665 442.412L378.446 422.992C372.219 421.458 368.182 418.461 365.483 414.137C362.61 409.532 360.705 402.518 360.752 392.202L340.752 392.111ZM376.01 442.701L383.041 442.733L383.133 422.734L376.101 422.702L376.01 442.701ZM383.041 442.733C389.894 442.765 396.112 440.423 401.252 435.896C406.185 431.551 409.715 425.571 412.289 418.8C417.388 405.389 419.666 386.365 419.774 362.587L399.774 362.496C399.669 385.593 397.392 401.705 393.595 411.692C391.722 416.619 389.719 419.403 388.033 420.887C386.555 422.189 385.069 422.742 383.133 422.734L383.041 442.733ZM419.774 362.587C419.777 361.851 419.902 361.497 419.96 361.364C420.009 361.25 420.099 361.084 420.381 360.836C421.063 360.235 422.949 359.121 427.257 358.423L424.059 338.68C417.813 339.692 411.774 341.765 407.162 345.827C402.186 350.21 399.803 356.087 399.774 362.496L419.774 362.587ZM425.613 358.551L429.128 358.567L429.22 338.568L425.704 338.552L425.613 358.551ZM429.128 358.567C434.539 358.592 436.725 359.857 437.538 360.605C438.178 361.195 439.325 362.706 439.305 367.071L459.304 367.162C459.341 359.222 457.16 351.49 451.09 345.897C445.192 340.462 437.285 338.604 429.22 338.568L429.128 358.567ZM439.457 368.855C443.425 391.339 449.909 409.254 459.899 421.106L475.191 408.216C468.572 400.363 462.895 386.582 459.152 365.378L439.457 368.855ZM461.485 422.615C470.256 429.298 479.638 433.505 489.432 433.55L489.523 413.55C485.548 413.532 480.308 411.813 473.606 406.707L461.485 422.615ZM487.789 433.406L493.058 434.309L496.436 414.597L491.167 413.694L487.789 433.406ZM494.701 434.453C502.361 434.488 509.879 432.372 515.321 426.439C520.599 420.687 522.378 413.006 522.413 405.243L502.413 405.152C502.39 410.279 501.195 412.252 500.584 412.919C500.138 413.405 498.852 414.472 494.793 414.453L494.701 434.453ZM522.413 405.243C522.522 381.239 511.49 360.156 491.16 342.203L477.921 357.194C494.941 372.224 502.491 388.14 502.413 405.152L522.413 405.243ZM490.674 341.8C488.611 340.199 485.77 338.852 483.159 337.734C480.272 336.499 476.619 335.118 472.273 333.597C463.565 330.55 451.612 326.781 436.485 322.3L430.804 341.477C445.813 345.922 457.41 349.585 465.667 352.475C469.804 353.922 472.987 355.136 475.291 356.121C477.869 357.225 478.572 357.725 478.407 357.597L490.674 341.8ZM438.983 323.433C430.944 318.357 426.125 312.743 423.614 306.81L405.196 314.604C409.641 325.109 417.648 333.616 428.306 340.344L438.983 323.433ZM424.321 309.418C423.816 305.533 423.306 302.301 422.77 299.927C422.518 298.813 422.16 297.422 421.621 296.132C421.373 295.537 420.851 294.378 419.909 293.201C419.163 292.27 416.519 289.291 411.866 289.269L411.775 309.269C407.304 309.249 404.847 306.39 404.293 305.697C403.542 304.759 403.215 303.958 403.166 303.84C403.026 303.504 403.083 303.543 403.262 304.335C403.587 305.774 404.003 308.259 404.488 311.996L424.321 309.418ZM407.496 290.253C379.678 303.594 359.122 329.393 345.047 365.707L363.696 372.935C376.599 339.644 394.342 318.742 416.145 308.286L407.496 290.253ZM344.495 367.755L340.875 390.591L360.629 393.722L364.248 370.886L344.495 367.755Z" fill="#FFC107" mask="url(#path-3-outside-2_274_21)"/>
</svg>
