<svg width="1151" height="558" viewBox="0 0 1151 558" fill="none" xmlns="http://www.w3.org/2000/svg">
<mask id="path-1-outside-1_274_20" maskUnits="userSpaceOnUse" x="-8" y="176.368" width="814" height="228" fill="black">
<rect fill="white" x="-8" y="176.368" width="814" height="228"/>
<path d="M135.25 384.618C128.583 386.118 121.75 387.118 114.75 387.618C107.917 388.284 101.167 388.618 94.5 388.618C88 388.618 82.9167 388.451 79.25 388.118C75.75 387.784 71.0833 386.951 65.25 385.618C59.4167 384.284 54.0833 382.451 49.25 380.118C44.4167 377.784 39.25 374.368 33.75 369.868C28.4167 365.368 23.9167 360.034 20.25 353.868C11.75 339.534 7.5 321.034 7.5 298.368C7.5 283.201 9.83333 269.784 14.5 258.118C19.3333 246.451 25.0833 237.451 31.75 231.118C38.5833 224.784 46.3333 219.701 55 215.868C69 209.534 83.0833 206.368 97.25 206.368C117.583 206.368 132.167 208.034 141 211.368C145 212.868 148.583 215.201 151.75 218.368C154.917 221.534 156.5 226.118 156.5 232.118C156.5 238.118 155 245.701 152 254.868C149.167 264.034 145 268.618 139.5 268.618C137.833 268.618 131.667 267.284 121 264.618C110.333 261.951 103.083 260.618 99.25 260.618C93.4167 260.618 88.4167 263.868 84.25 270.368C80.25 276.868 78.25 286.118 78.25 298.118C78.25 310.118 80 319.451 83.5 326.118C87.1667 332.784 91.9167 336.118 97.75 336.118C101.917 336.118 109.417 334.451 120.25 331.118C131.25 327.618 137.667 325.868 139.5 325.868C144.667 325.868 148.667 330.618 151.5 340.118C154.5 349.618 156 357.284 156 363.118C156 368.951 154.167 373.618 150.5 377.118C147 380.451 141.917 382.951 135.25 384.618ZM240.313 307.368V380.368C240.313 382.201 235.563 383.701 226.063 384.868C216.729 385.868 206.979 386.368 196.813 386.368C186.813 386.368 180.313 385.951 177.313 385.118C174.313 384.118 172.813 382.534 172.813 380.368V257.118C172.813 253.951 177.396 250.534 186.563 246.868C195.896 243.201 205.979 241.368 216.813 241.368C227.813 241.368 233.979 244.368 235.313 250.368L237.813 261.868H239.563C241.896 255.534 247.479 250.201 256.313 245.868C265.146 241.368 273.979 239.118 282.813 239.118C291.646 239.118 297.813 240.534 301.313 243.368C304.979 246.201 306.813 249.868 306.813 254.368C306.813 258.701 306.479 264.284 305.813 271.118C305.146 277.951 303.479 285.368 300.813 293.368C298.313 301.368 294.979 305.368 290.813 305.368C289.146 305.368 283.896 304.118 275.063 301.618C266.229 299.118 258.896 297.868 253.063 297.868C247.396 297.868 243.813 298.701 242.313 300.368C240.979 302.034 240.313 304.368 240.313 307.368ZM369.547 388.618C350.88 388.618 337.797 383.784 330.297 374.118C322.964 364.451 319.297 347.618 319.297 323.618V255.618C319.297 252.284 324.214 249.118 334.047 246.118C343.88 242.951 354.214 241.368 365.047 241.368C379.547 241.368 386.797 245.118 386.797 252.618V316.118C386.797 328.784 387.297 338.034 388.297 343.868C389.297 349.534 391.797 352.368 395.797 352.368C401.13 352.368 403.797 350.118 403.797 345.618V255.618C403.797 252.118 408.964 248.868 419.297 245.868C429.63 242.868 440.88 241.368 453.047 241.368C465.214 241.368 471.297 244.618 471.297 251.118V379.868C471.297 382.201 466.047 383.868 455.547 384.868C445.047 385.868 434.714 386.368 424.547 386.368C414.38 386.368 409.214 385.034 409.047 382.368L406.547 366.118H404.547C403.047 372.118 400.047 377.034 395.547 380.868C393.214 382.868 389.714 384.701 385.047 386.368C380.547 387.868 375.38 388.618 369.547 388.618ZM556.73 388.618C529.064 388.618 508.814 385.951 495.98 380.618C489.48 377.784 486.23 375.034 486.23 372.368C486.23 365.534 488.23 357.534 492.23 348.368C496.23 339.201 499.73 334.618 502.73 334.618C504.397 334.618 509.98 336.451 519.48 340.118C529.147 343.784 537.23 345.618 543.73 345.618C550.397 345.618 554.73 345.201 556.73 344.368C558.897 343.534 559.98 341.951 559.98 339.618C559.98 337.118 558.314 335.201 554.98 333.868C551.647 332.368 547.48 331.368 542.48 330.868C537.48 330.368 532.064 329.368 526.23 327.868C520.564 326.368 515.23 324.451 510.23 322.118C505.23 319.784 501.064 315.951 497.73 310.618C494.397 305.118 492.73 299.284 492.73 293.118C492.73 286.784 492.897 282.118 493.23 279.118C493.564 275.951 494.897 271.618 497.23 266.118C499.73 260.451 503.147 255.868 507.48 252.368C511.98 248.868 518.814 245.701 527.98 242.868C537.314 240.034 547.73 238.618 559.23 238.618C570.73 238.618 580.314 239.034 587.98 239.868C595.814 240.534 601.897 241.451 606.23 242.618C610.73 243.784 614.397 245.118 617.23 246.618C622.064 249.118 624.48 251.868 624.48 254.868C624.48 261.368 622.147 268.868 617.48 277.368C612.814 285.868 609.064 290.118 606.23 290.118C603.564 290.118 597.647 288.701 588.48 285.868C579.314 282.868 572.564 281.368 568.23 281.368C561.23 281.368 557.73 283.368 557.73 287.368C557.73 289.868 560.064 291.784 564.73 293.118C569.564 294.284 575.314 295.534 581.98 296.868C588.647 298.201 595.314 300.118 601.98 302.618C608.814 304.951 614.564 309.284 619.23 315.618C624.064 321.951 626.48 329.951 626.48 339.618C626.48 372.284 603.23 388.618 556.73 388.618ZM722.813 380.368V310.868C722.813 298.368 722.313 289.284 721.313 283.618C720.313 277.951 717.896 275.118 714.063 275.118C710.729 275.118 709.063 277.368 709.063 281.868V380.368C709.063 382.201 704.229 383.701 694.563 384.868C684.896 385.868 674.979 386.368 664.813 386.368C654.646 386.368 648.229 385.951 645.563 385.118C642.896 384.118 641.563 382.534 641.563 380.368V207.118C641.563 203.618 646.396 200.118 656.063 196.618C665.729 193.118 675.896 191.368 686.563 191.368C697.729 191.368 704.813 193.451 707.813 197.618C708.813 198.951 709.313 200.368 709.313 201.868V238.618L706.563 255.868H708.313C710.646 252.368 714.313 249.284 719.313 246.618C728.646 241.618 738.813 239.118 749.813 239.118C765.646 239.118 776.313 244.201 781.813 254.368C787.479 264.368 790.313 280.701 790.313 303.368V380.368C790.313 382.201 785.396 383.701 775.563 384.868C765.896 385.868 755.979 386.368 745.813 386.368C735.813 386.368 729.479 385.951 726.813 385.118C724.146 384.118 722.813 382.534 722.813 380.368Z"/>
</mask>
<path d="M135.25 384.618C128.583 386.118 121.75 387.118 114.75 387.618C107.917 388.284 101.167 388.618 94.5 388.618C88 388.618 82.9167 388.451 79.25 388.118C75.75 387.784 71.0833 386.951 65.25 385.618C59.4167 384.284 54.0833 382.451 49.25 380.118C44.4167 377.784 39.25 374.368 33.75 369.868C28.4167 365.368 23.9167 360.034 20.25 353.868C11.75 339.534 7.5 321.034 7.5 298.368C7.5 283.201 9.83333 269.784 14.5 258.118C19.3333 246.451 25.0833 237.451 31.75 231.118C38.5833 224.784 46.3333 219.701 55 215.868C69 209.534 83.0833 206.368 97.25 206.368C117.583 206.368 132.167 208.034 141 211.368C145 212.868 148.583 215.201 151.75 218.368C154.917 221.534 156.5 226.118 156.5 232.118C156.5 238.118 155 245.701 152 254.868C149.167 264.034 145 268.618 139.5 268.618C137.833 268.618 131.667 267.284 121 264.618C110.333 261.951 103.083 260.618 99.25 260.618C93.4167 260.618 88.4167 263.868 84.25 270.368C80.25 276.868 78.25 286.118 78.25 298.118C78.25 310.118 80 319.451 83.5 326.118C87.1667 332.784 91.9167 336.118 97.75 336.118C101.917 336.118 109.417 334.451 120.25 331.118C131.25 327.618 137.667 325.868 139.5 325.868C144.667 325.868 148.667 330.618 151.5 340.118C154.5 349.618 156 357.284 156 363.118C156 368.951 154.167 373.618 150.5 377.118C147 380.451 141.917 382.951 135.25 384.618ZM240.313 307.368V380.368C240.313 382.201 235.563 383.701 226.063 384.868C216.729 385.868 206.979 386.368 196.813 386.368C186.813 386.368 180.313 385.951 177.313 385.118C174.313 384.118 172.813 382.534 172.813 380.368V257.118C172.813 253.951 177.396 250.534 186.563 246.868C195.896 243.201 205.979 241.368 216.813 241.368C227.813 241.368 233.979 244.368 235.313 250.368L237.813 261.868H239.563C241.896 255.534 247.479 250.201 256.313 245.868C265.146 241.368 273.979 239.118 282.813 239.118C291.646 239.118 297.813 240.534 301.313 243.368C304.979 246.201 306.813 249.868 306.813 254.368C306.813 258.701 306.479 264.284 305.813 271.118C305.146 277.951 303.479 285.368 300.813 293.368C298.313 301.368 294.979 305.368 290.813 305.368C289.146 305.368 283.896 304.118 275.063 301.618C266.229 299.118 258.896 297.868 253.063 297.868C247.396 297.868 243.813 298.701 242.313 300.368C240.979 302.034 240.313 304.368 240.313 307.368ZM369.547 388.618C350.88 388.618 337.797 383.784 330.297 374.118C322.964 364.451 319.297 347.618 319.297 323.618V255.618C319.297 252.284 324.214 249.118 334.047 246.118C343.88 242.951 354.214 241.368 365.047 241.368C379.547 241.368 386.797 245.118 386.797 252.618V316.118C386.797 328.784 387.297 338.034 388.297 343.868C389.297 349.534 391.797 352.368 395.797 352.368C401.13 352.368 403.797 350.118 403.797 345.618V255.618C403.797 252.118 408.964 248.868 419.297 245.868C429.63 242.868 440.88 241.368 453.047 241.368C465.214 241.368 471.297 244.618 471.297 251.118V379.868C471.297 382.201 466.047 383.868 455.547 384.868C445.047 385.868 434.714 386.368 424.547 386.368C414.38 386.368 409.214 385.034 409.047 382.368L406.547 366.118H404.547C403.047 372.118 400.047 377.034 395.547 380.868C393.214 382.868 389.714 384.701 385.047 386.368C380.547 387.868 375.38 388.618 369.547 388.618ZM556.73 388.618C529.064 388.618 508.814 385.951 495.98 380.618C489.48 377.784 486.23 375.034 486.23 372.368C486.23 365.534 488.23 357.534 492.23 348.368C496.23 339.201 499.73 334.618 502.73 334.618C504.397 334.618 509.98 336.451 519.48 340.118C529.147 343.784 537.23 345.618 543.73 345.618C550.397 345.618 554.73 345.201 556.73 344.368C558.897 343.534 559.98 341.951 559.98 339.618C559.98 337.118 558.314 335.201 554.98 333.868C551.647 332.368 547.48 331.368 542.48 330.868C537.48 330.368 532.064 329.368 526.23 327.868C520.564 326.368 515.23 324.451 510.23 322.118C505.23 319.784 501.064 315.951 497.73 310.618C494.397 305.118 492.73 299.284 492.73 293.118C492.73 286.784 492.897 282.118 493.23 279.118C493.564 275.951 494.897 271.618 497.23 266.118C499.73 260.451 503.147 255.868 507.48 252.368C511.98 248.868 518.814 245.701 527.98 242.868C537.314 240.034 547.73 238.618 559.23 238.618C570.73 238.618 580.314 239.034 587.98 239.868C595.814 240.534 601.897 241.451 606.23 242.618C610.73 243.784 614.397 245.118 617.23 246.618C622.064 249.118 624.48 251.868 624.48 254.868C624.48 261.368 622.147 268.868 617.48 277.368C612.814 285.868 609.064 290.118 606.23 290.118C603.564 290.118 597.647 288.701 588.48 285.868C579.314 282.868 572.564 281.368 568.23 281.368C561.23 281.368 557.73 283.368 557.73 287.368C557.73 289.868 560.064 291.784 564.73 293.118C569.564 294.284 575.314 295.534 581.98 296.868C588.647 298.201 595.314 300.118 601.98 302.618C608.814 304.951 614.564 309.284 619.23 315.618C624.064 321.951 626.48 329.951 626.48 339.618C626.48 372.284 603.23 388.618 556.73 388.618ZM722.813 380.368V310.868C722.813 298.368 722.313 289.284 721.313 283.618C720.313 277.951 717.896 275.118 714.063 275.118C710.729 275.118 709.063 277.368 709.063 281.868V380.368C709.063 382.201 704.229 383.701 694.563 384.868C684.896 385.868 674.979 386.368 664.813 386.368C654.646 386.368 648.229 385.951 645.563 385.118C642.896 384.118 641.563 382.534 641.563 380.368V207.118C641.563 203.618 646.396 200.118 656.063 196.618C665.729 193.118 675.896 191.368 686.563 191.368C697.729 191.368 704.813 193.451 707.813 197.618C708.813 198.951 709.313 200.368 709.313 201.868V238.618L706.563 255.868H708.313C710.646 252.368 714.313 249.284 719.313 246.618C728.646 241.618 738.813 239.118 749.813 239.118C765.646 239.118 776.313 244.201 781.813 254.368C787.479 264.368 790.313 280.701 790.313 303.368V380.368C790.313 382.201 785.396 383.701 775.563 384.868C765.896 385.868 755.979 386.368 745.813 386.368C735.813 386.368 729.479 385.951 726.813 385.118C724.146 384.118 722.813 382.534 722.813 380.368Z" fill="#FFC107"/>
<path d="M135.25 384.618L138.543 399.252L138.716 399.213L138.888 399.17L135.25 384.618ZM114.75 387.618L113.681 372.656L113.487 372.67L113.294 372.689L114.75 387.618ZM79.25 388.118L77.8279 403.05L77.8599 403.053L77.892 403.056L79.25 388.118ZM65.25 385.618L61.9076 400.241L65.25 385.618ZM49.25 380.118L42.7288 393.626L42.7288 393.626L49.25 380.118ZM33.75 369.868L24.0769 381.332L24.1636 381.405L24.2514 381.477L33.75 369.868ZM20.25 353.868L7.34806 361.519L7.35251 361.526L7.35696 361.534L20.25 353.868ZM14.5 258.118L0.642161 252.377L0.606984 252.461L0.57285 252.547L14.5 258.118ZM31.75 231.118L21.5535 220.116L21.4858 220.179L21.4188 220.243L31.75 231.118ZM55 215.868L61.0676 229.586L61.1252 229.56L61.1825 229.534L55 215.868ZM141 211.368L135.704 225.402L135.719 225.407L135.733 225.413L141 211.368ZM151.75 218.368L162.357 207.761L162.357 207.761L151.75 218.368ZM152 254.868L137.744 250.202L137.706 250.32L137.669 250.438L152 254.868ZM84.25 270.368L71.6218 262.273L71.5474 262.389L71.4751 262.506L84.25 270.368ZM83.5 326.118L70.219 333.09L70.2867 333.219L70.3568 333.346L83.5 326.118ZM120.25 331.118L124.661 345.454L124.73 345.433L124.798 345.412L120.25 331.118ZM151.5 340.118L137.126 344.405L137.16 344.52L137.196 344.635L151.5 340.118ZM150.5 377.118L160.845 387.98L160.851 387.974L160.857 387.968L150.5 377.118ZM131.957 369.984C126.042 371.314 119.953 372.208 113.681 372.656L115.819 402.58C123.547 402.028 131.124 400.921 138.543 399.252L131.957 369.984ZM113.294 372.689C106.93 373.309 100.666 373.618 94.5 373.618V403.618C101.667 403.618 108.903 403.259 116.207 402.547L113.294 372.689ZM94.5 373.618C88.1673 373.618 83.6075 373.452 80.608 373.179L77.892 403.056C82.2258 403.45 87.8328 403.618 94.5 403.618V373.618ZM80.6721 373.185C78.1112 372.941 74.1656 372.269 68.5924 370.995L61.9076 400.241C68.0011 401.633 73.3888 402.627 77.8279 403.05L80.6721 373.185ZM68.5924 370.995C63.7334 369.884 59.4819 368.401 55.7712 366.609L42.7288 393.626C48.6848 396.501 55.0999 398.685 61.9076 400.241L68.5924 370.995ZM55.7712 366.609C52.2805 364.924 48.1099 362.236 43.2486 358.258L24.2514 381.477C30.3901 386.5 36.5528 390.644 42.7288 393.626L55.7712 366.609ZM43.4231 358.403C39.4031 355.011 35.9799 350.973 33.143 346.202L7.35696 361.534C11.8535 369.096 17.4302 375.724 24.0769 381.332L43.4231 358.403ZM33.1519 346.217C26.4339 334.888 22.5 319.275 22.5 298.368H-7.5C-7.5 322.794 -2.93386 344.181 7.34806 361.519L33.1519 346.217ZM22.5 298.368C22.5 284.724 24.5994 273.258 28.4272 263.689L0.57285 252.547C-4.93275 266.311 -7.5 281.678 -7.5 298.368H22.5ZM28.3578 263.859C32.6694 253.452 37.3921 246.447 42.0812 241.993L21.4188 220.243C12.7746 228.455 5.99724 239.451 0.642161 252.377L28.3578 263.859ZM41.9465 242.119C47.5422 236.933 53.8915 232.76 61.0676 229.586L48.9324 202.15C38.7751 206.642 29.6245 212.636 21.5535 220.116L41.9465 242.119ZM61.1825 229.534C73.4064 224.004 85.3911 221.368 97.25 221.368V191.368C80.7756 191.368 64.5936 195.064 48.8175 202.201L61.1825 229.534ZM97.25 221.368C117.375 221.368 129.598 223.098 135.704 225.402L146.296 197.334C134.735 192.971 117.792 191.368 97.25 191.368V221.368ZM135.733 225.413C137.632 226.124 139.416 227.247 141.143 228.974L162.357 207.761C157.751 203.155 152.368 199.611 146.267 197.323L135.733 225.413ZM141.143 228.974C140.989 228.82 141.023 228.754 141.135 229.078C141.27 229.471 141.5 230.404 141.5 232.118H171.5C171.5 223.534 169.189 214.593 162.357 207.761L141.143 228.974ZM141.5 232.118C141.5 235.869 140.512 241.744 137.744 250.202L166.256 259.533C169.488 249.658 171.5 240.367 171.5 232.118H141.5ZM137.669 250.438C137.155 252.1 136.664 253.28 136.258 254.078C135.847 254.884 135.605 255.14 135.651 255.09C135.72 255.014 136.132 254.592 136.949 254.205C137.806 253.798 138.717 253.618 139.5 253.618V283.618C155.799 283.618 163.188 269.465 166.331 259.297L137.669 250.438ZM139.5 253.618C140.478 253.618 140.894 253.746 139.923 253.58C139.251 253.466 138.23 253.267 136.795 252.956C133.942 252.34 129.912 251.384 124.638 250.066L117.362 279.17C122.755 280.518 127.142 281.563 130.455 282.279C133.004 282.83 136.715 283.618 139.5 283.618V253.618ZM124.638 250.066C114.222 247.461 105.217 245.618 99.25 245.618V275.618C100.949 275.618 106.445 276.441 117.362 279.17L124.638 250.066ZM99.25 245.618C86.6955 245.618 77.5477 253.028 71.6218 262.273L96.8782 278.463C98.137 276.499 99.0296 275.807 99.2998 275.632C99.4187 275.555 99.4268 275.569 99.3415 275.594C99.2536 275.621 99.2052 275.618 99.25 275.618V245.618ZM71.4751 262.506C65.4117 272.359 63.25 284.793 63.25 298.118H93.25C93.25 287.442 95.0883 281.376 97.0249 278.229L71.4751 262.506ZM63.25 298.118C63.25 311.253 65.1121 323.363 70.219 333.09L96.781 319.145C94.8879 315.539 93.25 308.982 93.25 298.118H63.25ZM70.3568 333.346C75.7306 343.117 84.7568 351.118 97.75 351.118V321.118C97.7413 321.118 97.8758 321.12 98.0843 321.186C98.1795 321.216 98.2633 321.25 98.3304 321.284C98.3969 321.317 98.4299 321.34 98.4289 321.339C98.418 321.332 97.7027 320.815 96.6432 318.889L70.3568 333.346ZM97.75 351.118C104.491 351.118 114.049 348.72 124.661 345.454L115.839 316.781C104.784 320.182 99.3425 321.118 97.75 321.118V351.118ZM124.798 345.412C130.22 343.686 134.346 342.446 137.259 341.652C138.725 341.252 139.738 341.005 140.378 340.869C141.358 340.661 140.755 340.868 139.5 340.868V310.868C137.329 310.868 135.235 311.293 134.153 311.522C132.73 311.824 131.108 312.233 129.366 312.709C125.862 313.664 121.28 315.049 115.702 316.824L124.798 345.412ZM139.5 340.868C138.392 340.868 137.244 340.589 136.255 340.076C135.335 339.6 134.919 339.113 134.901 339.092C134.9 339.091 135.183 339.435 135.631 340.369C136.072 341.289 136.588 342.603 137.126 344.405L165.874 335.831C164.18 330.15 161.73 324.377 157.849 319.768C153.632 314.761 147.405 310.868 139.5 310.868V340.868ZM137.196 344.635C140.012 353.552 141 359.525 141 363.118H171C171 355.044 168.988 345.684 165.804 335.601L137.196 344.635ZM141 363.118C141 365.527 140.389 366.032 140.143 366.267L160.857 387.968C167.944 381.203 171 372.375 171 363.118H141ZM140.155 366.256C139.162 367.202 136.763 368.778 131.612 370.066L138.888 399.17C147.07 397.124 154.838 393.7 160.845 387.98L140.155 366.256ZM226.063 384.868L227.66 399.782L227.776 399.77L227.891 399.756L226.063 384.868ZM177.313 385.118L172.569 399.348L172.931 399.468L173.298 399.57L177.313 385.118ZM186.563 246.868L181.078 232.906L181.035 232.923L180.992 232.941L186.563 246.868ZM235.313 250.368L249.97 247.181L249.963 247.147L249.955 247.114L235.313 250.368ZM237.813 261.868L223.155 265.054L225.723 276.868H237.813V261.868ZM239.563 261.868V276.868H250.022L253.638 267.053L239.563 261.868ZM256.313 245.868L262.919 259.335L263.021 259.285L263.121 259.233L256.313 245.868ZM301.313 243.368L291.875 255.026L292.006 255.133L292.141 255.237L301.313 243.368ZM300.813 293.368L286.582 288.624L286.538 288.758L286.495 288.894L300.813 293.368ZM275.063 301.618L279.147 287.185L279.147 287.185L275.063 301.618ZM242.313 300.368L231.163 290.333L230.872 290.657L230.599 290.997L242.313 300.368ZM225.313 307.368V380.368H255.313V307.368H225.313ZM225.313 380.368C225.313 373.607 229.789 370.115 230.805 369.402C232.051 368.528 232.847 368.37 232.233 368.564C231.203 368.889 228.742 369.426 224.234 369.98L227.891 399.756C232.883 399.143 237.547 398.346 241.267 397.171C243.028 396.615 245.605 395.666 248.038 393.959C250.243 392.412 255.313 388.045 255.313 380.368H225.313ZM224.465 369.953C215.704 370.892 206.489 371.368 196.813 371.368V401.368C207.469 401.368 217.755 400.844 227.66 399.782L224.465 369.953ZM196.813 371.368C191.983 371.368 188.207 371.266 185.397 371.086C182.315 370.888 181.245 370.642 181.327 370.665L173.298 399.57C176.38 400.427 180.06 400.805 183.478 401.024C187.168 401.261 191.642 401.368 196.813 401.368V371.368ZM182.056 370.887C182.064 370.89 182.135 370.914 182.259 370.968C182.382 371.022 182.572 371.112 182.812 371.25C183.282 371.52 184.03 372.022 184.827 372.864C186.697 374.838 187.813 377.585 187.813 380.368H157.813C157.813 385.317 159.678 389.939 163.048 393.496C166.085 396.702 169.711 398.395 172.569 399.348L182.056 370.887ZM187.813 380.368V257.118H157.813V380.368H187.813ZM187.813 257.118C187.813 260.118 186.693 262.246 185.982 263.266C185.332 264.2 184.86 264.471 185.215 264.206C185.515 263.983 186.193 263.535 187.416 262.905C188.615 262.288 190.17 261.58 192.133 260.795L180.992 232.941C175.939 234.962 171.109 237.303 167.285 240.154C164.119 242.514 157.813 248.063 157.813 257.118H187.813ZM192.047 260.829C199.498 257.902 207.705 256.368 216.813 256.368V226.368C204.254 226.368 192.294 228.5 181.078 232.906L192.047 260.829ZM216.813 256.368C218.911 256.368 220.468 256.513 221.574 256.706C222.693 256.902 223.13 257.109 223.126 257.106C223.08 257.084 222.518 256.795 221.883 256.033C221.213 255.229 220.829 254.338 220.67 253.622L249.955 247.114C248.173 239.092 242.905 233.367 236.249 230.129C230.251 227.211 223.364 226.368 216.813 226.368V256.368ZM220.655 253.554L223.155 265.054L252.47 258.681L249.97 247.181L220.655 253.554ZM237.813 276.868H239.563V246.868H237.813V276.868ZM253.638 267.053C254.136 265.701 255.975 262.741 262.919 259.335L249.706 232.401C238.984 237.661 229.656 245.367 225.487 256.682L253.638 267.053ZM263.121 259.233C270.107 255.675 276.622 254.118 282.813 254.118V224.118C271.336 224.118 260.185 227.061 249.504 232.502L263.121 259.233ZM282.813 254.118C286.507 254.118 289.06 254.422 290.704 254.799C292.407 255.19 292.468 255.507 291.875 255.026L310.75 231.709C303.002 225.436 292.267 224.118 282.813 224.118V254.118ZM292.141 255.237C292.296 255.357 292.318 255.398 292.268 255.338C292.214 255.274 292.117 255.143 292.021 254.951C291.925 254.758 291.865 254.575 291.833 254.435C291.803 254.299 291.813 254.266 291.813 254.368H321.813C321.813 245.063 317.699 237.073 310.484 231.498L292.141 255.237ZM291.813 254.368C291.813 258.019 291.527 263.068 290.883 269.661L320.742 272.574C321.432 265.501 321.813 259.383 321.813 254.368H291.813ZM290.883 269.661C290.347 275.157 288.971 281.459 286.582 288.624L315.043 298.111C317.988 289.277 319.944 280.745 320.742 272.574L290.883 269.661ZM286.495 288.894C286.04 290.352 285.622 291.378 285.291 292.06C284.951 292.758 284.789 292.915 284.914 292.765C285.05 292.602 285.614 291.974 286.722 291.382C287.912 290.748 289.341 290.368 290.813 290.368V320.368C298.43 320.368 304.219 316.461 307.961 311.97C311.42 307.82 313.608 302.711 315.13 297.842L286.495 288.894ZM290.813 290.368C291.818 290.368 292.286 290.504 291.558 290.372C291.066 290.284 290.269 290.117 289.099 289.838C286.771 289.284 283.48 288.411 279.147 287.185L270.978 316.051C275.478 317.324 279.229 318.327 282.151 319.022C284.382 319.554 287.892 320.368 290.813 320.368V290.368ZM279.147 287.185C269.653 284.497 260.832 282.868 253.063 282.868V312.868C256.96 312.868 262.806 313.738 270.978 316.051L279.147 287.185ZM253.063 282.868C249.629 282.868 246.061 283.107 242.727 283.883C239.686 284.59 234.906 286.175 231.163 290.333L253.462 310.402C252.271 311.725 251.093 312.417 250.448 312.734C249.805 313.051 249.43 313.124 249.523 313.103C249.595 313.086 249.913 313.021 250.549 312.963C251.173 312.907 252.001 312.868 253.063 312.868V282.868ZM230.599 290.997C226.423 296.218 225.313 302.318 225.313 307.368H255.313C255.313 306.417 255.536 307.85 254.026 309.738L230.599 290.997ZM330.297 374.118L318.347 383.183L318.396 383.248L318.446 383.313L330.297 374.118ZM334.047 246.118L338.424 260.465L338.535 260.431L338.645 260.396L334.047 246.118ZM388.297 343.868L373.513 346.402L373.519 346.438L373.525 346.474L388.297 343.868ZM419.297 245.868L423.479 260.273L423.479 260.273L419.297 245.868ZM455.547 384.868L456.969 399.8L456.969 399.8L455.547 384.868ZM409.047 382.368L424.018 381.432L423.975 380.756L423.872 380.087L409.047 382.368ZM406.547 366.118L421.372 363.837L419.416 351.118H406.547V366.118ZM404.547 366.118V351.118H392.835L389.995 362.48L404.547 366.118ZM395.547 380.868L385.82 369.449L385.802 369.464L385.785 369.479L395.547 380.868ZM385.047 386.368L389.79 400.598L389.942 400.547L390.092 400.494L385.047 386.368ZM369.547 373.618C353.022 373.618 345.566 369.328 342.148 364.923L318.446 383.313C330.028 398.241 348.738 403.618 369.547 403.618V373.618ZM342.247 365.052C338.064 359.537 334.297 347.04 334.297 323.618H304.297C304.297 348.195 307.863 369.365 318.347 383.183L342.247 365.052ZM334.297 323.618V255.618H304.297V323.618H334.297ZM334.297 255.618C334.297 258.724 333.089 260.998 332.182 262.198C331.382 263.256 330.768 263.572 331.107 263.353C331.381 263.176 332.076 262.783 333.38 262.238C334.654 261.705 336.316 261.108 338.424 260.465L329.67 231.771C324.269 233.418 319.042 235.44 314.862 238.132C311.332 240.406 304.297 245.944 304.297 255.618H334.297ZM338.645 260.396C346.921 257.73 355.698 256.368 365.047 256.368V226.368C352.729 226.368 340.839 228.172 329.449 231.84L338.645 260.396ZM365.047 256.368C368.067 256.368 370.351 256.566 372.014 256.853C373.714 257.146 374.404 257.47 374.468 257.503C374.473 257.506 374.263 257.399 373.944 257.123C373.615 256.839 373.209 256.411 372.829 255.821C371.99 254.52 371.797 253.265 371.797 252.618H401.797C401.797 248.22 400.697 243.684 398.046 239.57C395.44 235.526 391.881 232.735 388.251 230.857C381.428 227.328 373.103 226.368 365.047 226.368V256.368ZM371.797 252.618V316.118H401.797V252.618H371.797ZM371.797 316.118C371.797 328.901 372.283 339.232 373.513 346.402L403.081 341.333C402.31 336.837 401.797 328.667 401.797 316.118H371.797ZM373.525 346.474C374.273 350.711 375.882 355.869 379.674 360.167C383.956 365.019 389.779 367.368 395.797 367.368V337.368C396.595 337.368 397.765 337.517 399.072 338.086C400.4 338.665 401.441 339.493 402.169 340.318C403.462 341.783 403.321 342.691 403.069 341.261L373.525 346.474ZM395.797 367.368C400.212 367.368 406.32 366.49 411.47 362.145C417.108 357.387 418.797 350.911 418.797 345.618H388.797C388.797 345.293 388.842 344.336 389.346 343.059C389.887 341.691 390.817 340.318 392.124 339.216C394.607 337.121 396.715 337.368 395.797 337.368V367.368ZM418.797 345.618V255.618H388.797V345.618H418.797ZM418.797 255.618C418.797 258.697 417.593 260.96 416.677 262.157C415.876 263.203 415.274 263.494 415.659 263.252C415.977 263.052 416.735 262.637 418.125 262.076C419.485 261.528 421.25 260.92 423.479 260.273L415.115 231.462C409.461 233.104 404.022 235.13 399.685 237.858C395.988 240.184 388.797 245.783 388.797 255.618H418.797ZM423.479 260.273C432.289 257.715 442.114 256.368 453.047 256.368V226.368C439.647 226.368 426.971 228.02 415.115 231.462L423.479 260.273ZM453.047 256.368C455.463 256.368 457.208 256.532 458.401 256.745C459.629 256.963 459.92 257.171 459.666 257.035C459.335 256.858 458.314 256.21 457.43 254.792C456.516 253.328 456.297 251.922 456.297 251.118H486.297C486.297 247.063 485.317 242.814 482.882 238.912C480.477 235.057 477.176 232.377 473.803 230.575C467.504 227.21 459.976 226.368 453.047 226.368V256.368ZM456.297 251.118V379.868H486.297V251.118H456.297ZM456.297 379.868C456.297 374.041 459.787 370.655 461.222 369.561C462.55 368.549 463.438 368.375 462.821 368.571C461.75 368.911 459.091 369.462 454.125 369.935L456.969 399.8C462.503 399.273 467.719 398.491 471.898 397.165C473.906 396.527 476.763 395.436 479.403 393.424C482.151 391.331 486.297 386.861 486.297 379.868H456.297ZM454.125 369.935C444.08 370.892 434.221 371.368 424.547 371.368V401.368C435.206 401.368 446.014 400.843 456.969 399.8L454.125 369.935ZM424.547 371.368C419.807 371.368 417.503 371.026 416.795 370.844C416.396 370.741 417.548 370.947 419.109 372.118C419.978 372.769 421.156 373.858 422.166 375.521C423.22 377.258 423.884 379.288 424.018 381.432L394.076 383.303C394.458 389.409 397.872 393.69 401.109 396.118C404.004 398.289 407.114 399.328 409.299 399.892C413.758 401.043 419.12 401.368 424.547 401.368V371.368ZM423.872 380.087L421.372 363.837L391.721 368.399L394.221 384.649L423.872 380.087ZM406.547 351.118H404.547V381.118H406.547V351.118ZM389.995 362.48C389.216 365.596 387.826 367.741 385.82 369.449L405.274 392.286C412.268 386.328 416.878 378.64 419.099 369.756L389.995 362.48ZM385.785 369.479C385.434 369.78 383.869 370.861 380.002 372.242L390.092 400.494C395.558 398.541 400.993 395.955 405.309 392.257L385.785 369.479ZM380.303 372.137C377.638 373.026 374.124 373.618 369.547 373.618V403.618C376.636 403.618 383.456 402.709 389.79 400.598L380.303 372.137ZM495.98 380.618L489.987 394.368L490.105 394.42L490.224 394.469L495.98 380.618ZM492.23 348.368L478.482 342.369L478.482 342.369L492.23 348.368ZM519.48 340.118L514.079 354.112L514.12 354.127L514.161 354.143L519.48 340.118ZM556.73 344.368L551.346 330.367L551.152 330.442L550.961 330.522L556.73 344.368ZM554.98 333.868L548.825 347.546L549.115 347.677L549.41 347.795L554.98 333.868ZM542.48 330.868L543.973 315.942L543.973 315.942L542.48 330.868ZM526.23 327.868L522.392 342.368L522.443 342.382L522.495 342.395L526.23 327.868ZM510.23 322.118L503.887 335.71L503.887 335.71L510.23 322.118ZM497.73 310.618L484.902 318.392L484.956 318.48L485.01 318.568L497.73 310.618ZM493.23 279.118L508.139 280.774L508.144 280.731L508.148 280.688L493.23 279.118ZM497.23 266.118L483.507 260.063L483.464 260.161L483.422 260.259L497.23 266.118ZM507.48 252.368L498.271 240.527L498.163 240.612L498.055 240.699L507.48 252.368ZM527.98 242.868L523.623 228.514L523.587 228.525L523.551 228.537L527.98 242.868ZM587.98 239.868L586.36 254.78L586.534 254.799L586.708 254.814L587.98 239.868ZM606.23 242.618L602.331 257.102L602.398 257.12L602.466 257.138L606.23 242.618ZM617.23 246.618L610.212 259.874L610.275 259.908L610.339 259.941L617.23 246.618ZM588.48 285.868L583.815 300.124L583.933 300.162L584.051 300.199L588.48 285.868ZM564.73 293.118L560.61 307.541L560.909 307.626L561.211 307.699L564.73 293.118ZM581.98 296.868L579.039 311.576L579.039 311.576L581.98 296.868ZM601.98 302.618L596.714 316.663L596.922 316.741L597.133 316.813L601.98 302.618ZM619.23 315.618L607.155 324.516L607.23 324.617L607.306 324.718L619.23 315.618ZM556.73 373.618C529.472 373.618 511.709 370.911 501.737 366.766L490.224 394.469C505.918 400.991 528.656 403.618 556.73 403.618V373.618ZM501.974 366.867C500.726 366.323 499.811 365.859 499.169 365.492C498.507 365.112 498.294 364.926 498.357 364.979C498.392 365.009 499.026 365.538 499.702 366.666C500.435 367.886 501.23 369.851 501.23 372.368H471.23C471.23 380.182 475.973 385.338 478.979 387.881C482.211 390.616 486.162 392.701 489.987 394.368L501.974 366.867ZM501.23 372.368C501.23 368.325 502.453 362.445 505.979 354.367L478.482 342.369C474.007 352.624 471.23 362.743 471.23 372.368H501.23ZM505.979 354.367C506.848 352.374 507.626 350.779 508.305 349.535C508.997 348.267 509.497 347.526 509.777 347.159C510.104 346.731 509.888 347.131 509.031 347.736C508.127 348.373 505.941 349.618 502.73 349.618V319.618C493.653 319.618 488.106 326.108 485.934 328.951C483.109 332.651 480.668 337.361 478.482 342.369L505.979 354.367ZM502.73 349.618C501.724 349.618 501.049 349.496 500.979 349.483C500.821 349.456 500.822 349.449 501.037 349.504C501.473 349.614 502.26 349.841 503.488 350.244C505.925 351.044 509.423 352.314 514.079 354.112L524.882 326.124C520.038 324.254 515.995 322.775 512.848 321.741C511.285 321.228 509.769 320.767 508.392 320.419C507.394 320.167 505.164 319.618 502.73 319.618V349.618ZM514.161 354.143C524.643 358.119 534.661 360.618 543.73 360.618V330.618C539.8 330.618 533.651 329.45 524.8 326.093L514.161 354.143ZM543.73 360.618C547.32 360.618 550.593 360.508 553.416 360.236C555.888 359.999 559.334 359.533 562.5 358.214L550.961 330.522C551.715 330.208 552.126 330.152 551.888 330.198C551.716 330.232 551.293 330.302 550.545 330.374C549.035 330.519 546.807 330.618 543.73 330.618V360.618ZM562.115 358.368C565.431 357.092 568.956 354.814 571.548 351.025C574.136 347.243 574.98 343.145 574.98 339.618H544.98C544.98 338.424 545.284 336.284 546.788 334.085C548.297 331.88 550.196 330.81 551.346 330.367L562.115 358.368ZM574.98 339.618C574.98 328.337 566.641 322.376 560.551 319.941L549.41 347.795C549.721 347.92 548.653 347.576 547.411 346.148C545.913 344.424 544.98 342.048 544.98 339.618H574.98ZM561.136 320.189C555.888 317.827 550.025 316.547 543.973 315.942L540.988 345.793C544.936 346.188 547.406 346.908 548.825 347.546L561.136 320.189ZM543.973 315.942C539.861 315.531 535.203 314.687 529.966 313.34L522.495 342.395C528.925 344.049 535.1 345.204 540.988 345.793L543.973 315.942ZM530.069 313.367C525.209 312.081 520.719 310.459 516.574 308.525L503.887 335.71C509.742 338.443 515.918 340.655 522.392 342.368L530.069 313.367ZM516.574 308.525C514.553 307.582 512.469 305.897 510.45 302.668L485.01 318.568C489.659 326.005 495.908 331.987 503.887 335.71L516.574 308.525ZM510.558 302.843C508.582 299.582 507.73 296.422 507.73 293.118H477.73C477.73 302.146 480.212 310.653 484.902 318.392L510.558 302.843ZM507.73 293.118C507.73 286.875 507.902 282.903 508.139 280.774L478.322 277.461C477.892 281.333 477.73 286.694 477.73 293.118H507.73ZM508.148 280.688C508.244 279.772 508.872 277.084 511.039 271.976L483.422 260.259C480.922 266.152 478.883 272.13 478.313 277.547L508.148 280.688ZM510.954 272.172C512.599 268.445 514.632 265.873 516.906 264.037L498.055 240.699C491.662 245.863 486.862 252.457 483.507 260.063L510.954 272.172ZM516.69 264.208C519.109 262.326 523.957 259.811 532.41 257.199L523.551 228.537C513.671 231.591 504.852 235.409 498.271 240.527L516.69 264.208ZM532.338 257.221C540.032 254.885 548.95 253.618 559.23 253.618V223.618C546.511 223.618 534.595 225.184 523.623 228.514L532.338 257.221ZM559.23 253.618C570.424 253.618 579.423 254.026 586.36 254.78L589.601 224.956C581.205 224.043 571.037 223.618 559.23 223.618V253.618ZM586.708 254.814C594.209 255.452 599.266 256.277 602.331 257.102L610.13 228.133C604.528 226.625 597.419 225.617 589.252 224.922L586.708 254.814ZM602.466 257.138C606.294 258.13 608.758 259.105 610.212 259.874L624.249 233.361C620.036 231.131 615.167 229.439 609.995 228.098L602.466 257.138ZM610.339 259.941C611.828 260.711 611.872 260.993 611.4 260.457C611.117 260.135 610.623 259.484 610.199 258.476C609.759 257.429 609.48 256.193 609.48 254.868H639.48C639.48 242.784 629.813 236.238 624.122 233.294L610.339 259.941ZM609.48 254.868C609.48 257.903 608.336 262.856 604.332 270.149L630.629 284.587C635.959 274.879 639.48 264.832 639.48 254.868H609.48ZM604.332 270.149C603.312 272.007 602.412 273.504 601.634 274.682C600.844 275.879 600.269 276.611 599.92 277.006C599.525 277.454 599.671 277.184 600.392 276.719C601.098 276.262 603.146 275.118 606.23 275.118V305.118C614.674 305.118 620.211 299.353 622.416 296.854C625.358 293.519 628.082 289.226 630.629 284.587L604.332 270.149ZM606.23 275.118C606.729 275.118 606.765 275.168 606.064 275.052C605.451 274.951 604.543 274.768 603.286 274.467C600.768 273.865 597.338 272.905 592.91 271.537L584.051 300.199C588.789 301.663 592.902 302.829 596.3 303.643C599.325 304.367 602.974 305.118 606.23 305.118V275.118ZM593.146 271.612C583.859 268.572 575.141 266.368 568.23 266.368V296.368C569.987 296.368 574.769 297.163 583.815 300.124L593.146 271.612ZM568.23 266.368C563.794 266.368 558.039 266.915 552.913 269.844C546.535 273.489 542.73 279.933 542.73 287.368H572.73C572.73 288.615 572.436 290.428 571.343 292.301C570.254 294.168 568.837 295.297 567.798 295.891C566.85 296.433 566.262 296.512 566.443 296.478C566.598 296.448 567.151 296.368 568.23 296.368V266.368ZM542.73 287.368C542.73 294.044 546.12 299.117 549.959 302.271C553.387 305.086 557.36 306.612 560.61 307.541L568.851 278.695C567.434 278.29 567.907 278.191 569.002 279.089C569.643 279.616 570.619 280.59 571.431 282.126C572.281 283.736 572.73 285.553 572.73 287.368H542.73ZM561.211 307.699C566.291 308.925 572.243 310.217 579.039 311.576L584.922 282.159C578.384 280.851 572.837 279.644 568.25 278.536L561.211 307.699ZM579.039 311.576C584.877 312.744 590.767 314.433 596.714 316.663L607.247 288.573C599.86 285.803 592.417 283.658 584.922 282.159L579.039 311.576ZM597.133 316.813C600.813 318.07 604.131 320.412 607.155 324.516L631.306 306.72C624.996 298.156 616.814 291.832 606.828 288.422L597.133 316.813ZM607.306 324.718C609.748 327.917 611.48 332.519 611.48 339.618H641.48C641.48 327.383 638.38 315.985 631.155 306.518L607.306 324.718ZM611.48 339.618C611.48 351.908 607.404 359.188 600.42 364.094C592.47 369.679 578.683 373.618 556.73 373.618V403.618C581.278 403.618 602.366 399.389 617.666 388.642C633.932 377.214 641.48 359.994 641.48 339.618H611.48ZM721.313 283.618L706.541 286.224L706.541 286.224L721.313 283.618ZM694.563 384.868L696.106 399.788L696.233 399.775L696.36 399.76L694.563 384.868ZM645.563 385.118L640.296 399.163L640.688 399.31L641.088 399.435L645.563 385.118ZM656.063 196.618L650.956 182.514L650.956 182.514L656.063 196.618ZM707.813 197.618L695.639 206.382L695.725 206.501L695.813 206.618L707.813 197.618ZM709.313 238.618L724.125 240.979L724.313 239.806V238.618H709.313ZM706.563 255.868L691.75 253.506L688.982 270.868H706.563V255.868ZM708.313 255.868V270.868H716.34L720.793 264.188L708.313 255.868ZM719.313 246.618L726.371 259.853L726.384 259.846L726.396 259.84L719.313 246.618ZM781.813 254.368L768.619 261.505L768.689 261.635L768.762 261.763L781.813 254.368ZM775.563 384.868L777.106 399.788L777.218 399.776L777.33 399.763L775.563 384.868ZM726.813 385.118L721.546 399.163L721.938 399.31L722.338 399.435L726.813 385.118ZM737.813 380.368V310.868H707.813V380.368H737.813ZM737.813 310.868C737.813 298.263 737.328 288.059 736.084 281.011L706.541 286.224C707.297 290.509 707.813 298.472 707.813 310.868H737.813ZM736.084 281.011C735.352 276.86 733.805 271.779 730.163 267.508C726.01 262.639 720.223 260.118 714.063 260.118V290.118C713.136 290.118 711.86 289.937 710.479 289.311C709.086 288.679 708.04 287.8 707.337 286.977C706.112 285.54 706.273 284.709 706.541 286.224L736.084 281.011ZM714.063 260.118C708.665 260.118 702.479 262.179 698.259 267.877C694.663 272.731 694.063 278.204 694.063 281.868H724.063C724.063 281.031 724.295 283.129 722.366 285.734C721.289 287.187 719.797 288.423 718.03 289.218C716.349 289.975 714.903 290.118 714.063 290.118V260.118ZM694.063 281.868V380.368H724.063V281.868H694.063ZM694.063 380.368C694.063 373.486 698.683 369.992 699.64 369.332C700.87 368.484 701.638 368.341 700.992 368.542C699.901 368.88 697.361 369.421 692.765 369.976L696.36 399.76C701.43 399.148 706.14 398.355 709.883 397.194C711.654 396.644 714.234 395.71 716.672 394.028C718.838 392.535 724.063 388.166 724.063 380.368H694.063ZM693.019 369.947C683.888 370.892 674.487 371.368 664.813 371.368V401.368C675.471 401.368 685.904 400.843 696.106 399.788L693.019 369.947ZM664.813 371.368C659.891 371.368 656.102 371.266 653.347 371.087C650.195 370.882 649.506 370.635 650.037 370.8L641.088 399.435C644.286 400.434 648.139 400.812 651.403 401.024C655.064 401.261 659.567 401.368 664.813 401.368V371.368ZM650.829 371.073C651.042 371.153 652.537 371.738 654.036 373.518C655.76 375.565 656.563 378.095 656.563 380.368H626.563C626.563 384.807 628.032 389.212 631.089 392.842C633.922 396.206 637.416 398.083 640.296 399.163L650.829 371.073ZM656.563 380.368V207.118H626.563V380.368H656.563ZM656.563 207.118C656.563 209.891 655.56 211.932 654.812 213.016C654.145 213.982 653.644 214.264 653.985 214.017C654.278 213.805 654.969 213.365 656.24 212.751C657.486 212.149 659.109 211.467 661.169 210.722L650.956 182.514C645.609 184.45 640.469 186.765 636.39 189.719C632.787 192.327 626.563 197.98 626.563 207.118H656.563ZM661.169 210.722C669.137 207.837 677.571 206.368 686.563 206.368V176.368C674.221 176.368 662.321 178.399 650.956 182.514L661.169 210.722ZM686.563 206.368C691.367 206.368 694.361 206.834 696.018 207.321C697.72 207.821 696.779 207.965 695.639 206.382L719.986 188.853C715.846 183.104 709.863 180.122 704.482 178.54C699.055 176.943 692.925 176.368 686.563 176.368V206.368ZM695.813 206.618C695.497 206.197 695.102 205.549 694.793 204.672C694.478 203.78 694.313 202.821 694.313 201.868H724.313C724.313 196.762 722.532 192.244 719.813 188.618L695.813 206.618ZM694.313 201.868V238.618H724.313V201.868H694.313ZM694.5 236.256L691.75 253.506L721.375 258.229L724.125 240.979L694.5 236.256ZM706.563 270.868H708.313V240.868H706.563V270.868ZM720.793 264.188C721.359 263.34 722.83 261.742 726.371 259.853L712.254 233.382C705.795 236.827 699.933 241.396 695.832 247.547L720.793 264.188ZM726.396 259.84C733.464 256.053 741.184 254.118 749.813 254.118V224.118C736.441 224.118 723.827 227.182 712.229 233.395L726.396 259.84ZM749.813 254.118C762.462 254.118 766.686 257.931 768.619 261.505L795.006 247.23C785.939 230.471 768.83 224.118 749.813 224.118V254.118ZM768.762 261.763C772.418 268.214 775.313 281.226 775.313 303.368H805.313C805.313 280.176 802.54 260.521 794.863 246.972L768.762 261.763ZM775.313 303.368V380.368H805.313V303.368H775.313ZM775.313 380.368C775.313 373.366 780.078 369.871 780.973 369.265C782.187 368.442 782.927 368.313 782.248 368.521C781.098 368.871 778.48 369.416 773.795 369.972L777.33 399.763C782.479 399.152 787.235 398.364 791.002 397.215C792.782 396.672 795.366 395.752 797.808 394.096C799.932 392.656 805.313 388.286 805.313 380.368H775.313ZM774.019 369.947C764.888 370.892 755.487 371.368 745.813 371.368V401.368C756.471 401.368 766.904 400.843 777.106 399.788L774.019 369.947ZM745.813 371.368C740.978 371.368 737.256 371.266 734.547 371.088C731.455 370.884 730.77 370.639 731.287 370.8L722.338 399.435C725.522 400.43 729.337 400.81 732.578 401.023C736.202 401.261 740.647 401.368 745.813 401.368V371.368ZM732.079 371.073C732.292 371.153 733.787 371.738 735.286 373.518C737.01 375.565 737.813 378.095 737.813 380.368H707.813C707.813 384.807 709.282 389.212 712.339 392.842C715.172 396.206 718.666 398.083 721.546 399.163L732.079 371.073Z" fill="black" mask="url(#path-1-outside-1_274_20)"/>
<mask id="path-3-outside-2_274_20" maskUnits="userSpaceOnUse" x="680.572" y="58.958" width="448.051" height="384.688" fill="black">
<rect fill="white" x="680.572" y="58.958" width="448.051" height="384.688"/>
<path d="M834.746 93.8273C850.583 101.265 864.646 116.501 876.934 139.535C894.964 176.954 897.025 210.469 883.117 240.081L877.513 252.014C867.514 273.302 850.332 291.125 825.966 305.485C812.14 311.759 801.868 314.487 795.149 313.669C779.5 313.871 766.114 311.36 754.991 306.136C737.239 297.799 728.955 283.658 730.14 263.716L732.109 254.93C722.252 256.774 716.439 257.281 714.671 256.45C710.266 250.515 709.257 245.007 711.644 239.924C713.72 235.504 719.133 233.551 727.883 234.064C748.309 232.689 767.599 229.521 785.752 224.561C798.813 221.255 807.126 215.808 810.689 208.221L810.897 207.779C815.186 198.645 813.613 190.893 806.175 184.523L801.755 182.447C791.885 177.811 781.309 180.037 770.028 189.124L767.926 192.452C766.161 196.209 766.407 200.28 768.663 204.666L771.756 206.119C775.881 208.057 782.125 204.336 790.486 194.956C794.318 193.879 797.376 193.877 799.66 194.949L800.102 195.157C805.037 197.475 806.106 202.473 803.31 210.15L803.102 210.592C799.746 217.737 789.684 223.081 772.915 226.624C767.232 226.472 763.065 225.773 760.413 224.528L757.32 223.075C747.228 218.335 743.063 208.827 744.824 194.549L747.676 186.178C753.938 172.846 767.922 164.129 789.628 160.028C799.373 159.57 807.413 160.829 813.748 163.804C828.48 170.724 835.351 183.661 834.36 202.616C833.532 207.442 832.461 211.254 831.146 214.053C824.504 228.196 805.342 239.516 773.659 248.012C762.145 252.044 755.538 255.774 753.838 259.202C752.995 266.358 754.004 271.867 756.865 275.728C760.113 280.49 764.352 284.1 769.582 286.556C788.513 295.447 811.153 289.357 837.502 268.287C849.05 256.717 857.436 245.371 862.66 234.249C867.467 222.481 869.282 216.32 868.103 215.767C848.868 198.91 830.95 171.974 814.35 134.957C808.118 118.363 806.8 106.236 810.398 98.5756C813.062 92.9037 818.968 90.2831 828.117 90.7137L834.746 93.8273ZM831.05 121.222C832.303 127.744 835.627 135.599 841.022 144.786C852.511 164.927 862.605 178.659 871.304 185.981C866.787 153.291 853.37 131.705 831.05 121.222ZM937.735 227.162L946.575 231.314C955.488 235.5 964.307 247.734 973.033 268.016L977.66 269.649L979.428 270.48C1010.07 284.872 1028.04 316.686 1033.32 365.921C1033.49 387.76 1030.29 405.677 1023.72 419.673L1022.89 421.441C1017.95 424.875 1013.9 425.848 1010.73 424.361L1010.29 424.153C1006.46 422.354 1004.38 417.964 1004.07 410.982C1011.02 396.176 1012.08 374.015 1007.24 344.5C1000.46 317.581 988.971 300.316 972.765 292.705L965.694 289.384C963.632 288.415 961.908 289.404 960.525 292.35L959.902 293.676C958.137 297.433 962.508 303.442 973.014 311.703C985.569 326.32 991.714 342.333 991.45 359.742L988.443 370.737L986.575 374.715C980.971 386.648 970.112 392.157 953.998 391.242C950.489 390.673 947.188 389.662 944.094 388.209L943.652 388.001C934.739 383.815 927.049 376.068 920.583 364.759L920.141 364.551C907.554 370.867 895.184 371.171 883.03 365.463C868.371 358.578 862.514 345.398 865.458 325.921L868.102 317.993L869.556 314.899C877.063 298.915 894.413 284.946 921.605 272.992C935.245 268.07 944.288 265.664 948.732 265.773C945.495 258.499 940.709 253.374 934.374 250.399L933.933 250.191C921.631 244.413 907.393 248.695 891.217 263.036C887.891 263.991 885.197 263.984 883.134 263.016L881.809 262.393C876.469 258.447 875.391 253.085 878.574 246.308C885.074 238.212 895.897 231.248 911.044 225.415C922.283 223.501 931.18 224.083 937.735 227.162ZM888.479 320.55C883.082 332.041 884.172 340.825 891.748 346.9L895.284 348.561C904.123 352.712 914.078 343.003 925.149 319.431C926.948 315.601 930.706 314.489 936.425 316.096L938.193 316.926C944.97 320.109 946.905 324.794 943.999 330.982C940.833 342.891 940.19 352.3 942.071 359.207C944.591 363.987 947.582 367.19 951.044 368.816L953.489 370.503C959.381 373.271 963.85 371.414 966.894 364.932C971.738 354.619 971.383 343.124 965.829 330.446C964.606 328.073 957.445 321.113 944.347 309.567C941.016 304.407 939.436 299.349 939.605 294.393C940.889 290.321 941.346 288.198 940.978 288.025C925.692 288.218 910.581 295.507 895.644 309.89L888.479 320.55Z"/>
</mask>
<path d="M834.746 93.8273C850.583 101.265 864.646 116.501 876.934 139.535C894.964 176.954 897.025 210.469 883.117 240.081L877.513 252.014C867.514 273.302 850.332 291.125 825.966 305.485C812.14 311.759 801.868 314.487 795.149 313.669C779.5 313.871 766.114 311.36 754.991 306.136C737.239 297.799 728.955 283.658 730.14 263.716L732.109 254.93C722.252 256.774 716.439 257.281 714.671 256.45C710.266 250.515 709.257 245.007 711.644 239.924C713.72 235.504 719.133 233.551 727.883 234.064C748.309 232.689 767.599 229.521 785.752 224.561C798.813 221.255 807.126 215.808 810.689 208.221L810.897 207.779C815.186 198.645 813.613 190.893 806.175 184.523L801.755 182.447C791.885 177.811 781.309 180.037 770.028 189.124L767.926 192.452C766.161 196.209 766.407 200.28 768.663 204.666L771.756 206.119C775.881 208.057 782.125 204.336 790.486 194.956C794.318 193.879 797.376 193.877 799.66 194.949L800.102 195.157C805.037 197.475 806.106 202.473 803.31 210.15L803.102 210.592C799.746 217.737 789.684 223.081 772.915 226.624C767.232 226.472 763.065 225.773 760.413 224.528L757.32 223.075C747.228 218.335 743.063 208.827 744.824 194.549L747.676 186.178C753.938 172.846 767.922 164.129 789.628 160.028C799.373 159.57 807.413 160.829 813.748 163.804C828.48 170.724 835.351 183.661 834.36 202.616C833.532 207.442 832.461 211.254 831.146 214.053C824.504 228.196 805.342 239.516 773.659 248.012C762.145 252.044 755.538 255.774 753.838 259.202C752.995 266.358 754.004 271.867 756.865 275.728C760.113 280.49 764.352 284.1 769.582 286.556C788.513 295.447 811.153 289.357 837.502 268.287C849.05 256.717 857.436 245.371 862.66 234.249C867.467 222.481 869.282 216.32 868.103 215.767C848.868 198.91 830.95 171.974 814.35 134.957C808.118 118.363 806.8 106.236 810.398 98.5756C813.062 92.9037 818.968 90.2831 828.117 90.7137L834.746 93.8273ZM831.05 121.222C832.303 127.744 835.627 135.599 841.022 144.786C852.511 164.927 862.605 178.659 871.304 185.981C866.787 153.291 853.37 131.705 831.05 121.222ZM937.735 227.162L946.575 231.314C955.488 235.5 964.307 247.734 973.033 268.016L977.66 269.649L979.428 270.48C1010.07 284.872 1028.04 316.686 1033.32 365.921C1033.49 387.76 1030.29 405.677 1023.72 419.673L1022.89 421.441C1017.95 424.875 1013.9 425.848 1010.73 424.361L1010.29 424.153C1006.46 422.354 1004.38 417.964 1004.07 410.982C1011.02 396.176 1012.08 374.015 1007.24 344.5C1000.46 317.581 988.971 300.316 972.765 292.705L965.694 289.384C963.632 288.415 961.908 289.404 960.525 292.35L959.902 293.676C958.137 297.433 962.508 303.442 973.014 311.703C985.569 326.32 991.714 342.333 991.45 359.742L988.443 370.737L986.575 374.715C980.971 386.648 970.112 392.157 953.998 391.242C950.489 390.673 947.188 389.662 944.094 388.209L943.652 388.001C934.739 383.815 927.049 376.068 920.583 364.759L920.141 364.551C907.554 370.867 895.184 371.171 883.03 365.463C868.371 358.578 862.514 345.398 865.458 325.921L868.102 317.993L869.556 314.899C877.063 298.915 894.413 284.946 921.605 272.992C935.245 268.07 944.288 265.664 948.732 265.773C945.495 258.499 940.709 253.374 934.374 250.399L933.933 250.191C921.631 244.413 907.393 248.695 891.217 263.036C887.891 263.991 885.197 263.984 883.134 263.016L881.809 262.393C876.469 258.447 875.391 253.085 878.574 246.308C885.074 238.212 895.897 231.248 911.044 225.415C922.283 223.501 931.18 224.083 937.735 227.162ZM888.479 320.55C883.082 332.041 884.172 340.825 891.748 346.9L895.284 348.561C904.123 352.712 914.078 343.003 925.149 319.431C926.948 315.601 930.706 314.489 936.425 316.096L938.193 316.926C944.97 320.109 946.905 324.794 943.999 330.982C940.833 342.891 940.19 352.3 942.071 359.207C944.591 363.987 947.582 367.19 951.044 368.816L953.489 370.503C959.381 373.271 963.85 371.414 966.894 364.932C971.738 354.619 971.383 343.124 965.829 330.446C964.606 328.073 957.445 321.113 944.347 309.567C941.016 304.407 939.436 299.349 939.605 294.393C940.889 290.321 941.346 288.198 940.978 288.025C925.692 288.218 910.581 295.507 895.644 309.89L888.479 320.55Z" fill="black"/>
<path d="M876.934 139.535L885.943 135.195L885.854 135.01L885.757 134.829L876.934 139.535ZM825.966 305.485L830.098 314.591L830.583 314.371L831.043 314.1L825.966 305.485ZM795.149 313.669L796.358 303.742L795.691 303.661L795.02 303.67L795.149 313.669ZM730.14 263.716L720.382 261.529L720.206 262.317L720.158 263.123L730.14 263.716ZM732.109 254.93L741.867 257.116L745.184 242.31L730.27 245.1L732.109 254.93ZM714.671 256.45L706.642 262.41L708.142 264.432L710.42 265.502L714.671 256.45ZM727.883 234.064L727.297 244.047L727.926 244.084L728.555 244.042L727.883 234.064ZM785.752 224.561L783.298 214.867L783.207 214.89L783.117 214.914L785.752 224.561ZM806.175 184.523L812.68 176.928L811.652 176.047L810.426 175.472L806.175 184.523ZM770.028 189.124L763.755 181.337L762.461 182.379L761.574 183.783L770.028 189.124ZM767.926 192.452L759.472 187.111L759.139 187.638L758.874 188.201L767.926 192.452ZM768.663 204.666L759.77 209.24L761.328 212.27L764.412 213.718L768.663 204.666ZM790.486 194.956L787.78 185.329L784.966 186.12L783.021 188.302L790.486 194.956ZM803.31 210.15L812.361 214.401L812.552 213.995L812.706 213.573L803.31 210.15ZM772.915 226.624L772.649 236.62L773.828 236.652L774.982 236.408L772.915 226.624ZM744.824 194.549L735.358 191.323L735.025 192.3L734.899 193.325L744.824 194.549ZM747.676 186.178L738.625 181.927L738.389 182.429L738.211 182.953L747.676 186.178ZM789.628 160.028L789.159 150.039L788.459 150.072L787.771 150.202L789.628 160.028ZM834.36 202.616L844.216 204.307L844.316 203.726L844.347 203.138L834.36 202.616ZM773.659 248.012L771.069 238.353L770.707 238.45L770.354 238.574L773.659 248.012ZM753.838 259.202L744.879 254.759L744.11 256.311L743.907 258.031L753.838 259.202ZM756.865 275.728L765.127 270.094L765.016 269.932L764.9 269.774L756.865 275.728ZM837.502 268.287L843.748 276.097L844.185 275.747L844.58 275.351L837.502 268.287ZM862.66 234.249L871.711 238.5L871.82 238.268L871.917 238.031L862.66 234.249ZM868.103 215.767L861.513 223.288L862.575 224.218L863.852 224.818L868.103 215.767ZM814.35 134.957L804.989 138.473L805.098 138.764L805.226 139.048L814.35 134.957ZM828.117 90.7137L832.368 81.6623L830.571 80.8181L828.587 80.7247L828.117 90.7137ZM831.05 121.222L835.302 112.171L817.527 103.822L821.23 123.108L831.05 121.222ZM841.022 144.786L849.708 139.831L849.677 139.777L849.645 139.722L841.022 144.786ZM871.304 185.981L864.864 193.632L884.771 210.388L881.21 184.613L871.304 185.981ZM830.495 102.879C843.629 109.047 856.363 122.22 868.111 144.242L885.757 134.829C872.929 110.783 857.538 93.4837 838.997 84.7759L830.495 102.879ZM867.925 143.876C885.032 179.378 886.361 209.652 874.066 235.83L892.169 244.332C907.689 211.287 904.896 174.53 885.943 135.195L867.925 143.876ZM874.066 235.83L868.461 247.763L886.564 256.265L892.169 244.332L874.066 235.83ZM868.461 247.763C859.479 266.887 843.878 283.321 820.888 296.87L831.043 314.1C856.786 298.929 875.55 279.716 886.564 256.265L868.461 247.763ZM821.833 296.379C808.073 302.623 800.065 304.193 796.358 303.742L793.941 323.595C803.67 324.78 816.207 320.894 830.098 314.591L821.833 296.379ZM795.02 303.67C780.482 303.858 768.673 301.514 759.242 297.085L750.74 315.188C763.554 321.206 778.517 323.885 795.279 323.668L795.02 303.67ZM759.242 297.085C751.829 293.603 747.026 289.23 744.093 284.223C741.151 279.202 739.621 272.742 740.123 264.309L720.158 263.123C719.474 274.632 721.493 285.213 726.836 294.333C732.187 303.466 740.401 310.332 750.74 315.188L759.242 297.085ZM739.898 265.902L741.867 257.116L722.351 252.744L720.382 261.529L739.898 265.902ZM730.27 245.1C725.47 245.998 721.919 246.519 719.488 246.731C718.263 246.838 717.534 246.847 717.182 246.832C716.547 246.804 717.501 246.731 718.923 247.399L710.42 265.502C712.726 266.585 715.069 266.76 716.329 266.813C717.873 266.879 719.544 266.802 721.225 266.655C724.606 266.36 728.89 265.705 733.947 264.759L730.27 245.1ZM722.701 250.49C719.686 246.428 720.374 244.859 720.696 244.175L702.593 235.673C698.14 245.154 700.847 254.603 706.642 262.41L722.701 250.49ZM720.696 244.175C720.407 244.791 719.964 244.8 720.655 244.551C721.6 244.21 723.637 243.832 727.297 244.047L728.468 224.081C719.104 223.532 707.519 225.184 702.593 235.673L720.696 244.175ZM728.555 244.042C749.587 242.625 769.539 239.357 788.388 234.207L783.117 214.914C765.658 219.685 747.03 222.752 727.211 224.087L728.555 244.042ZM788.206 234.255C802.422 230.657 814.297 224.063 819.74 212.472L801.638 203.97C799.954 207.554 795.204 211.853 783.298 214.867L788.206 234.255ZM819.74 212.472L819.948 212.03L801.845 203.528L801.638 203.97L819.74 212.472ZM819.948 212.03C822.753 206.058 824.053 199.626 822.734 193.125C821.406 186.588 817.679 181.21 812.68 176.928L799.67 192.118C802.109 194.207 802.887 195.89 803.134 197.104C803.388 198.356 803.33 200.367 801.845 203.528L819.948 212.03ZM810.426 175.472L806.007 173.396L797.504 191.499L801.924 193.574L810.426 175.472ZM806.007 173.396C791.513 166.589 776.863 170.778 763.755 181.337L776.302 196.912C785.755 189.297 792.257 189.034 797.504 191.499L806.007 173.396ZM761.574 183.783L759.472 187.111L776.38 197.793L778.483 194.465L761.574 183.783ZM758.874 188.201C755.536 195.309 756.396 202.679 759.77 209.24L777.556 200.093C776.419 197.882 776.787 197.109 776.977 196.704L758.874 188.201ZM764.412 213.718L767.505 215.171L776.008 197.068L772.914 195.615L764.412 213.718ZM767.505 215.171C774.037 218.239 780.424 215.892 784.652 213.372C789.062 210.744 793.509 206.593 797.95 201.611L783.021 188.302C779.101 192.699 776.246 195.099 774.413 196.192C772.398 197.393 773.601 195.938 776.008 197.068L767.505 215.171ZM793.191 204.583C794.478 204.222 795.271 204.147 795.661 204.147C796.025 204.146 795.852 204.209 795.409 204.001L803.911 185.898C798.501 183.357 792.658 183.958 787.78 185.329L793.191 204.583ZM795.409 204.001L795.851 204.208L804.353 186.106L803.911 185.898L795.409 204.001ZM795.851 204.208C795.943 204.252 795.675 204.14 795.349 203.742C795.007 203.326 794.866 202.919 794.826 202.736C794.8 202.61 794.871 202.829 794.774 203.544C794.677 204.258 794.432 205.304 793.914 206.727L812.706 213.573C814.397 208.929 815.482 203.682 814.384 198.551C813.146 192.767 809.43 188.49 804.353 186.106L795.851 204.208ZM794.258 205.899L794.051 206.341L812.153 214.843L812.361 214.401L794.258 205.899ZM794.051 206.341C793.621 207.256 792.286 209.036 788.348 211.127C784.446 213.199 778.729 215.175 770.848 216.84L774.982 236.408C783.87 234.53 791.569 232.062 797.729 228.79C803.854 225.538 809.228 221.072 812.153 214.843L794.051 206.341ZM773.182 216.627C767.824 216.484 765.376 215.811 764.664 215.477L756.162 233.579C760.754 235.736 766.641 236.46 772.649 236.62L773.182 216.627ZM764.664 215.477L761.571 214.024L753.068 232.126L756.162 233.579L764.664 215.477ZM761.571 214.024C758.542 212.601 756.822 210.74 755.787 208.376C754.651 205.783 754.007 201.787 754.748 195.773L734.899 193.325C733.88 201.589 734.438 209.486 737.467 216.401C740.597 223.546 746.006 228.809 753.068 232.126L761.571 214.024ZM754.289 197.774L757.141 189.404L738.211 182.953L735.358 191.323L754.289 197.774ZM756.727 190.43C761.042 181.243 771.288 173.67 791.484 169.854L787.771 150.202C764.556 154.588 746.834 164.449 738.625 181.927L756.727 190.43ZM790.097 170.017C798.822 169.607 805.101 170.791 809.497 172.856L817.999 154.753C809.726 150.867 799.925 149.533 789.159 150.039L790.097 170.017ZM809.497 172.856C815.134 175.503 818.811 179.041 821.119 183.387C823.487 187.847 824.802 193.902 824.374 202.094L844.347 203.138C844.909 192.375 843.284 182.483 838.782 174.006C834.219 165.415 827.095 159.025 817.999 154.753L809.497 172.856ZM824.504 200.925C823.751 205.316 822.873 208.147 822.095 209.802L840.198 218.304C842.049 214.362 843.314 209.567 844.216 204.307L824.504 200.925ZM822.095 209.802C819.919 214.434 815.262 219.486 806.707 224.54C798.18 229.577 786.407 234.24 771.069 238.353L776.249 257.67C792.594 253.287 806.243 248.043 816.879 241.76C827.486 235.494 835.731 227.815 840.198 218.304L822.095 209.802ZM770.354 238.574C764.331 240.683 759.183 242.85 755.152 245.126C751.53 247.17 747.141 250.198 744.879 254.759L762.797 263.644C762.235 264.778 762 264.227 764.985 262.542C767.561 261.087 771.473 259.373 776.965 257.45L770.354 238.574ZM743.907 258.031C742.911 266.48 743.846 274.955 748.831 281.682L764.9 269.774C764.162 268.779 763.078 266.236 763.77 260.372L743.907 258.031ZM748.604 281.363C752.862 287.605 758.487 292.393 765.331 295.607L773.833 277.504C770.217 275.806 767.365 273.375 765.127 270.094L748.604 281.363ZM765.331 295.607C789.526 306.971 816.402 297.964 843.748 276.097L831.257 260.477C805.904 280.75 787.5 283.923 773.833 277.504L765.331 295.607ZM844.58 275.351C856.69 263.218 865.864 250.948 871.711 238.5L853.608 229.998C849.007 239.794 841.41 250.216 830.425 261.222L844.58 275.351ZM871.917 238.031C874.351 232.074 876.164 227.211 877.219 223.628C877.723 221.918 878.21 219.991 878.382 218.176C878.462 217.327 878.55 215.806 878.171 214.088C877.817 212.476 876.56 208.691 872.355 206.715L863.852 224.818C859.941 222.981 858.886 219.509 858.639 218.386C858.368 217.157 858.47 216.3 858.471 216.29C858.484 216.154 858.438 216.606 858.034 217.977C857.275 220.554 855.777 224.656 853.403 230.467L871.917 238.031ZM874.694 208.246C856.989 192.731 839.793 167.255 823.475 130.865L805.226 139.048C822.107 176.692 840.746 205.09 861.513 223.288L874.694 208.246ZM823.712 131.44C820.77 123.608 819.167 117.284 818.629 112.337C818.086 107.337 818.703 104.418 819.45 102.827L801.347 94.3244C798.496 100.394 797.972 107.368 798.746 114.496C799.526 121.676 801.698 129.712 804.989 138.473L823.712 131.44ZM819.45 102.827C819.725 102.242 820.053 101.865 820.882 101.497C821.946 101.025 824.02 100.532 827.647 100.703L828.587 80.7247C817.575 80.2064 806.5 83.3522 801.347 94.3244L819.45 102.827ZM823.866 99.7651L830.495 102.879L838.997 84.7759L832.368 81.6623L823.866 99.7651ZM821.23 123.108C822.787 131.219 826.732 140.2 832.399 149.85L849.645 139.722C844.522 130.998 841.818 124.269 840.871 119.336L821.23 123.108ZM832.336 149.741C843.931 170.068 854.741 185.111 864.864 193.632L877.743 178.331C870.469 172.208 861.091 159.786 849.708 139.831L832.336 149.741ZM881.21 184.613C876.404 149.831 861.682 124.561 835.302 112.171L826.799 130.273C845.058 138.849 857.17 156.751 861.398 187.35L881.21 184.613ZM973.033 268.016L963.847 271.968L965.576 275.988L969.703 277.445L973.033 268.016ZM977.66 269.649L981.911 260.598L981.46 260.386L980.989 260.22L977.66 269.649ZM1033.32 365.921L1043.32 365.842L1043.32 365.347L1043.26 364.854L1033.32 365.921ZM1022.89 421.441L1028.6 429.651L1030.8 428.12L1031.94 425.692L1022.89 421.441ZM1004.07 410.982L995.015 406.73L993.965 408.967L994.077 411.435L1004.07 410.982ZM1007.24 344.5L1017.11 342.883L1017.04 342.467L1016.94 342.059L1007.24 344.5ZM973.014 311.703L980.6 305.187L979.963 304.446L979.195 303.842L973.014 311.703ZM991.45 359.742L1001.1 362.379L1001.43 361.158L1001.45 359.893L991.45 359.742ZM988.443 370.737L997.495 374.988L997.862 374.207L998.089 373.374L988.443 370.737ZM953.998 391.242L952.397 401.113L952.911 401.196L953.431 401.226L953.998 391.242ZM920.583 364.759L929.264 359.795L927.695 357.051L924.834 355.707L920.583 364.759ZM920.141 364.551L924.392 355.5L919.996 353.435L915.656 355.613L920.141 364.551ZM865.458 325.921L855.972 322.757L855.699 323.575L855.57 324.427L865.458 325.921ZM868.102 317.993L859.051 313.742L858.802 314.272L858.616 314.828L868.102 317.993ZM921.605 272.992L918.211 263.586L917.892 263.701L917.581 263.838L921.605 272.992ZM948.732 265.773L948.486 275.77L964.298 276.159L957.868 261.708L948.732 265.773ZM891.217 263.036L893.978 272.647L896.155 272.021L897.851 270.518L891.217 263.036ZM881.809 262.393L875.865 270.435L876.661 271.023L877.557 271.444L881.809 262.393ZM878.574 246.308L870.776 240.048L870.029 240.978L869.522 242.057L878.574 246.308ZM911.044 225.415L909.365 215.557L908.381 215.725L907.45 216.083L911.044 225.415ZM888.479 320.55L880.18 314.972L879.753 315.607L879.428 316.299L888.479 320.55ZM891.748 346.9L885.492 354.702L886.42 355.446L887.497 355.952L891.748 346.9ZM936.425 316.096L940.676 307.045L939.927 306.693L939.13 306.469L936.425 316.096ZM943.999 330.982L934.948 326.731L934.566 327.544L934.335 328.413L943.999 330.982ZM942.071 359.207L932.422 361.834L932.712 362.897L933.225 363.871L942.071 359.207ZM951.044 368.816L956.726 360.587L956.045 360.116L955.296 359.765L951.044 368.816ZM953.489 370.503L947.807 378.733L948.488 379.203L949.237 379.555L953.489 370.503ZM965.829 330.446L974.989 326.433L974.862 326.144L974.717 325.863L965.829 330.446ZM944.347 309.567L935.944 314.99L936.695 316.153L937.734 317.069L944.347 309.567ZM939.605 294.393L930.068 291.388L929.658 292.688L929.611 294.051L939.605 294.393ZM940.978 288.025L945.229 278.974L943.149 277.997L940.851 278.026L940.978 288.025ZM895.644 309.89L888.708 302.686L887.94 303.426L887.345 304.312L895.644 309.89ZM933.484 236.214L942.324 240.365L950.826 222.262L941.987 218.111L933.484 236.214ZM942.324 240.365C944.636 241.451 947.863 244.067 951.762 249.477C955.599 254.799 959.652 262.218 963.847 271.968L982.219 264.064C977.688 253.532 972.968 244.692 967.986 237.781C963.066 230.956 957.427 225.363 950.826 222.262L942.324 240.365ZM969.703 277.445L974.331 279.079L980.989 260.22L976.362 258.586L969.703 277.445ZM973.409 278.701L975.177 279.531L983.679 261.428L981.911 260.598L973.409 278.701ZM975.177 279.531C1001.34 291.819 1018.28 319.477 1023.38 366.989L1043.26 364.854C1037.79 313.894 1018.8 277.925 983.679 261.428L975.177 279.531ZM1023.32 366C1023.49 386.919 1020.4 403.22 1014.67 415.422L1032.77 423.924C1040.19 408.135 1043.5 388.601 1043.32 365.842L1023.32 366ZM1014.67 415.422L1013.84 417.19L1031.94 425.692L1032.77 423.924L1014.67 415.422ZM1017.18 413.23C1015.32 414.526 1014.22 414.925 1013.81 415.023C1013.65 415.062 1013.72 415.022 1013.98 415.04C1014.26 415.06 1014.62 415.14 1014.98 415.309L1006.48 433.412C1014.7 437.275 1022.88 433.624 1028.6 429.651L1017.18 413.23ZM1014.98 415.309L1014.54 415.102L1006.04 433.205L1006.48 433.412L1014.98 415.309ZM1014.54 415.102C1015.03 415.334 1015.1 415.661 1014.9 415.24C1014.62 414.646 1014.18 413.231 1014.06 410.528L994.077 411.435C994.446 419.564 997.03 428.974 1006.04 433.205L1014.54 415.102ZM1013.12 415.233C1021.39 397.622 1022.04 372.963 1017.11 342.883L997.371 346.118C1002.12 375.068 1000.65 394.73 995.015 406.73L1013.12 415.233ZM1016.94 342.059C1009.83 313.844 997.149 293.109 977.017 283.654L968.514 301.756C980.792 307.523 991.091 321.319 997.542 346.942L1016.94 342.059ZM977.017 283.654L969.945 280.332L961.443 298.435L968.514 301.756L977.017 283.654ZM969.945 280.332C966.461 278.696 962.018 278.35 957.878 280.726C954.426 282.707 952.531 285.848 951.473 288.099L969.576 296.602C969.902 295.907 969.561 297.08 967.832 298.072C966.841 298.641 965.606 299.017 964.264 299.024C962.977 299.031 962.003 298.698 961.443 298.435L969.945 280.332ZM951.473 288.099L950.85 289.425L968.953 297.927L969.576 296.602L951.473 288.099ZM950.85 289.425C947.483 296.594 951.155 303.289 953.77 306.883C956.765 311 961.335 315.24 966.833 319.563L979.195 303.842C974.187 299.904 971.319 297.009 969.944 295.118C969.265 294.186 969.287 293.95 969.391 294.338C969.535 294.879 969.72 296.296 968.953 297.927L950.85 289.425ZM965.428 318.218C976.574 331.196 981.674 344.891 981.451 359.59L1001.45 359.893C1001.75 339.776 994.563 321.445 980.6 305.187L965.428 318.218ZM981.804 357.104L978.797 368.1L998.089 373.374L1001.1 362.379L981.804 357.104ZM979.392 366.486L977.524 370.464L995.627 378.966L997.495 374.988L979.392 366.486ZM977.524 370.464C975.585 374.591 972.978 377.217 969.703 378.878C966.278 380.616 961.416 381.647 954.565 381.258L953.431 401.226C962.694 401.752 971.318 400.486 978.752 396.714C986.336 392.866 991.961 386.771 995.627 378.966L977.524 370.464ZM955.599 381.371C952.97 380.945 950.565 380.2 948.345 379.157L939.843 397.26C943.811 399.124 948.008 400.401 952.397 401.113L955.599 381.371ZM948.345 379.157L947.903 378.95L939.401 397.053L939.843 397.26L948.345 379.157ZM947.903 378.95C941.369 375.881 935.035 369.888 929.264 359.795L911.902 369.723C919.064 382.247 928.109 391.749 939.401 397.053L947.903 378.95ZM924.834 355.707L924.392 355.5L915.89 373.603L916.332 373.81L924.834 355.707ZM915.656 355.613C905.655 360.632 896.506 360.744 887.281 356.411L878.779 374.514C893.861 381.598 909.453 381.103 924.626 373.489L915.656 355.613ZM887.281 356.411C881.842 353.857 878.613 350.474 876.781 346.353C874.861 342.033 874.058 335.936 875.345 327.416L855.57 324.427C853.914 335.383 854.567 345.614 858.505 354.475C862.53 363.534 869.559 370.184 878.779 374.514L887.281 356.411ZM874.944 329.086L877.589 321.157L858.616 314.828L855.972 322.757L874.944 329.086ZM877.154 322.244L878.607 319.15L860.504 310.648L859.051 313.742L877.154 322.244ZM878.607 319.15C884.585 306.423 899.256 293.74 925.629 282.147L917.581 263.838C889.57 276.151 869.541 291.407 860.504 310.648L878.607 319.15ZM924.999 282.399C931.679 279.988 937.052 278.26 941.189 277.159C945.572 275.993 947.778 275.753 948.486 275.77L948.978 255.776C945.241 255.684 940.704 256.592 936.045 257.832C931.139 259.138 925.172 261.074 918.211 263.586L924.999 282.399ZM957.868 261.708C953.798 252.56 947.434 245.484 938.626 241.347L930.123 259.45C933.985 261.264 937.192 264.437 939.595 269.838L957.868 261.708ZM938.626 241.347L938.184 241.14L929.681 259.242L930.123 259.45L938.626 241.347ZM938.184 241.14C920.365 232.771 901.774 240.312 884.583 255.553L897.851 270.518C913.011 257.078 922.898 256.056 929.681 259.242L938.184 241.14ZM888.456 253.424C887.455 253.712 886.908 253.748 886.727 253.747C886.577 253.747 886.875 253.724 887.386 253.964L878.883 272.067C884.03 274.484 889.489 273.936 893.978 272.647L888.456 253.424ZM887.386 253.964L886.06 253.341L877.557 271.444L878.883 272.067L887.386 253.964ZM887.752 254.351C887.155 253.909 886.912 253.602 886.836 253.491C886.798 253.436 886.789 253.414 886.793 253.421C886.794 253.423 886.795 253.428 886.797 253.434C886.799 253.439 886.799 253.442 886.799 253.44C886.799 253.44 886.791 253.402 886.791 253.312C886.791 253.221 886.799 253.065 886.839 252.834C886.921 252.361 887.131 251.613 887.625 250.56L869.522 242.057C867.35 246.682 866.099 251.95 867.192 257.384C868.32 262.993 871.649 267.319 875.865 270.435L887.752 254.351ZM886.372 252.569C891.311 246.417 900.293 240.271 914.637 234.747L907.45 216.083C891.501 222.225 878.837 230.008 870.776 240.048L886.372 252.569ZM912.723 235.273C923.017 233.52 929.561 234.371 933.484 236.214L941.987 218.111C932.799 213.795 921.548 213.482 909.365 215.557L912.723 235.273ZM879.428 316.299C876.258 323.049 874.468 330.076 875.325 336.987C876.223 344.225 879.889 350.208 885.492 354.702L898.004 339.099C896.031 337.517 895.364 336.07 895.173 334.525C894.94 332.652 895.304 329.543 897.531 324.801L879.428 316.299ZM887.497 355.952L891.032 357.612L899.535 339.51L895.999 337.849L887.497 355.952ZM891.032 357.612C895.468 359.695 900.269 360.052 904.958 358.665C909.382 357.357 913.167 354.667 916.362 351.551C922.65 345.417 928.52 335.776 934.2 323.682L916.097 315.18C910.707 326.657 906.063 333.657 902.397 337.233C900.614 338.972 899.561 339.405 899.286 339.486C899.19 339.515 899.248 339.485 899.401 339.496C899.555 339.508 899.614 339.547 899.535 339.51L891.032 357.612ZM934.2 323.682C934.153 323.782 933.958 324.143 933.51 324.541C933.047 324.953 932.545 325.198 932.153 325.314C931.802 325.418 931.699 325.372 931.982 325.387C932.27 325.402 932.833 325.474 933.72 325.723L939.13 306.469C935.326 305.4 930.872 304.837 926.481 306.135C921.626 307.571 918.102 310.911 916.097 315.18L934.2 323.682ZM932.174 325.148L933.942 325.978L942.444 307.875L940.676 307.045L932.174 325.148ZM933.942 325.978C934.976 326.464 935.478 326.847 935.665 327.017C935.824 327.16 935.652 327.051 935.485 326.645C935.406 326.455 935.353 326.257 935.327 326.073C935.301 325.892 935.307 325.772 935.31 325.734C935.316 325.675 935.297 325.986 934.948 326.731L953.05 335.233C955.263 330.521 956.346 324.764 953.969 319.01C951.682 313.471 947.034 310.031 942.444 307.875L933.942 325.978ZM934.335 328.413C931.002 340.951 929.855 352.404 932.422 361.834L951.72 356.58C950.526 352.195 950.664 344.832 953.663 333.551L934.335 328.413ZM933.225 363.871C936.352 369.801 940.697 375.004 946.793 377.867L955.296 359.765C954.467 359.376 952.83 358.173 950.917 354.543L933.225 363.871ZM945.363 377.045L947.807 378.733L959.17 362.274L956.726 360.587L945.363 377.045ZM949.237 379.555C953.813 381.704 959.451 382.767 965.098 380.421C970.519 378.167 973.863 373.617 975.946 369.183L957.843 360.681C957.39 361.644 957.044 362.089 956.915 362.233C956.858 362.296 956.868 362.273 956.958 362.207C957.052 362.138 957.207 362.041 957.422 361.952C957.638 361.862 957.864 361.801 958.079 361.77C958.291 361.739 958.444 361.744 958.516 361.75C958.644 361.762 958.407 361.765 957.74 361.452L949.237 379.555ZM975.946 369.183C982.276 355.706 981.429 341.134 974.989 326.433L956.669 334.458C961.337 345.114 961.2 353.533 957.843 360.681L975.946 369.183ZM974.717 325.863C973.765 324.017 972.297 322.303 971.237 321.123C969.977 319.721 968.38 318.093 966.511 316.275C962.759 312.629 957.555 307.88 950.959 302.066L937.734 317.069C944.237 322.801 949.162 327.304 952.571 330.618C954.282 332.28 955.523 333.559 956.359 334.489C957.395 335.642 957.281 335.688 956.941 335.028L974.717 325.863ZM952.749 304.145C950.258 300.285 949.515 297.21 949.599 294.735L929.611 294.051C929.357 301.487 931.774 308.528 935.944 314.99L952.749 304.145ZM949.143 297.399C949.807 295.291 950.357 293.384 950.687 291.854C950.836 291.162 951.046 290.077 951.092 288.909C951.112 288.38 951.133 287.199 950.79 285.801C950.522 284.708 949.404 280.935 945.229 278.974L936.727 297.076C932.644 295.159 931.592 291.489 931.365 290.561C931.063 289.328 931.097 288.374 931.107 288.132C931.13 287.538 931.215 287.27 931.135 287.64C931.008 288.233 930.687 289.423 930.068 291.388L949.143 297.399ZM940.851 278.026C922.231 278.261 904.813 287.179 888.708 302.686L902.581 317.093C916.35 303.834 929.154 298.175 941.104 298.024L940.851 278.026ZM887.345 304.312L880.18 314.972L896.779 326.128L903.944 315.468L887.345 304.312Z" fill="#FFC107" mask="url(#path-3-outside-2_274_20)"/>
</svg>
